<svg width="276" height="306" viewBox="0 0 276 306" fill="none" xmlns="http://www.w3.org/2000/svg">
<path d="M0 303H3M3 303H6M3 303V306M3 303L3 300M54 303H57M57 303H60M57 303V306M57 303V300M108 303H111M111 303H114M111 303V306M111 303V300M162 303H165M165 303H168M165 303V306M165 303V300M216 303H219M219 303H222M219 303V306M219 303V300M270 303H273M273 303H276M273 303V306M273 303V300M0 253H3M3 253H6M3 253V256M3 253L3 250M54 253H57M57 253H60M57 253V256M57 253V250M108 253H111M111 253H114M111 253V256M111 253V250M162 253H165M165 253H168M165 253V256M165 253V250M216 253H219M219 253H222M219 253V256M219 253V250M270 253H273M273 253H276M273 253V256M273 253V250M0 203H3M3 203H6M3 203V206M3 203L3 200M54 203H57M57 203H60M57 203V206M57 203V200M108 203H111M111 203H114M111 203V206M111 203V200M162 203H165M165 203H168M165 203V206M165 203V200M216 203H219M219 203H222M219 203V206M219 203V200M270 203H273M273 203H276M273 203V206M273 203V200M0 153H3M3 153H6M3 153V156M3 153L3 150M54 153H57M57 153H60M57 153V156M57 153V150M108 153H111M111 153H114M111 153V156M111 153V150M162 153H165M165 153H168M165 153V156M165 153V150M216 153H219M219 153H222M219 153V156M219 153V150M270 153H273M273 153H276M273 153V156M273 153V150M0 103H3M3 103H6M3 103V106M3 103L3 100M54 103H57M57 103H60M57 103V106M57 103V100M108 103H111M111 103H114M111 103V106M111 103V100M162 103H165M165 103H168M165 103V106M165 103V100M216 103H219M219 103H222M219 103V106M219 103V100M270 103H273M273 103H276M273 103V106M273 103V100M0 53H3M3 53H6M3 53V56M3 53L3 50M54 53H57M57 53H60M57 53V56M57 53V50M108 53H111M111 53H114M111 53V56M111 53V50M162 53H165M165 53H168M165 53V56M165 53V50M216 53H219M219 53H222M219 53V56M219 53V50M270 53H273M273 53H276M273 53V56M273 53V50M0 3H3M3 3H6M3 3V6M3 3L3 0M54 3H57M57 3H60M57 3V6M57 3V0M108 3H111M111 3H114M111 3V6M111 3V0M162 3H165M165 3H168M165 3V6M165 3V0M216 3H219M219 3H222M219 3V6M219 3V0M270 3H273M273 3H276M273 3V6M273 3V0" stroke="#A7A7A7" stroke-width="2"/>
</svg>
