<svg width="25" height="25" viewBox="0 0 25 25" fill="none" xmlns="http://www.w3.org/2000/svg" aria-labelledby="gitHubSvgID" role="img">
<title id="gitHubSvgID">GitHub logo</title>
<path d="M12.5 0C5.46875 0 0 5.46875 0 12.5C0 20.7031 7.42188 24.2188 8.59375 24.2188C9.375 24.2188 9.375 23.8281 9.375 23.4375V21.4844C6.64062 22.2656 5.46875 20.7031 5.07812 19.5312C5.07812 19.5312 5.07812 19.1406 4.29688 18.3594C3.90625 17.9688 2.34375 17.1875 3.90625 17.1875C5.07812 17.1875 5.85938 18.75 5.85938 18.75C7.03125 20.3125 8.59375 19.9219 9.375 19.5312C9.375 18.75 10.1562 17.9688 10.1562 17.9688C7.03125 17.5781 4.6875 16.4062 4.6875 12.1094C4.6875 10.5469 5.07812 9.375 5.85938 8.59375C5.85938 8.59375 5.07812 7.03125 5.85938 5.07812C5.85938 5.07812 7.8125 5.07812 9.375 6.64062C10.5469 5.85938 14.4531 5.85938 15.625 6.64062C17.1875 5.07812 19.1406 5.07812 19.1406 5.07812C19.9219 7.8125 19.1406 8.59375 19.1406 8.59375C19.9219 9.375 20.3125 10.5469 20.3125 12.1094C20.3125 16.4062 17.5781 17.5781 14.8438 17.9688C15.2344 18.3594 15.625 19.1406 15.625 20.3125V23.4375C15.625 23.8281 15.625 24.2188 16.4062 24.2188C17.5781 24.2188 25 20.7031 25 12.5C25 5.46875 19.5312 0 12.5 0Z" fill="#626262"/>
</svg>
