<svg width="25" height="25" viewBox="0 0 25 25" fill="none" xmlns="http://www.w3.org/2000/svg" aria-labelledby="linkedInSvgID" role="img">
<title id="linkedInSvgID">LinkedIn logo</title>
<path d="M22.9906 0H2.00938C0.9 0 0 0.9 0 2.00938V22.9906C0 24.1 0.9 25 2.00938 25H22.9906C24.1 25 25 24.1 25 22.9906V2.00938C25 0.9 24.1 0 22.9906 0ZM22.9906 23C8.99688 22.9969 2 22.9937 2 22.9906C2.00312 8.99688 2.00625 2 2.00938 2C16.0031 2.00312 23 2.00625 23 2.00938C22.9969 16.0031 22.9937 23 22.9906 23ZM3.70625 9.37187H7.41562V21.3031H3.70625V9.37187ZM5.5625 7.74063C6.74687 7.74063 7.7125 6.77812 7.7125 5.59062C7.7125 5.30828 7.65689 5.02871 7.54884 4.76786C7.44079 4.50701 7.28243 4.26999 7.08278 4.07035C6.88313 3.8707 6.64612 3.71233 6.38527 3.60428C6.12442 3.49624 5.84484 3.44063 5.5625 3.44063C5.28016 3.44063 5.00058 3.49624 4.73973 3.60428C4.47888 3.71233 4.24187 3.8707 4.04222 4.07035C3.84257 4.26999 3.68421 4.50701 3.57616 4.76786C3.46811 5.02871 3.4125 5.30828 3.4125 5.59062C3.40937 6.77812 4.37187 7.74063 5.5625 7.74063ZM13.4469 15.4C13.4469 13.8438 13.7437 12.3375 15.6719 12.3375C17.5719 12.3375 17.6 14.1156 17.6 15.5V21.3031H21.3062V14.7594C21.3062 11.5469 20.6125 9.075 16.8594 9.075C15.0562 9.075 13.8469 10.0656 13.35 11.0031H13.3V9.37187H9.74063V21.3031H13.4469V15.4Z" fill="#626262"/>
</svg>
