<svg width="100%" height="100%" viewBox="0 0 1287 374" fill="none" xmlns="http://www.w3.org/2000/svg" aria-labelledby="theLogoID" role="img">
<title id="theLogoID">Paul The Developer logo</title>
<path d="M232.45 251C243.2 257.27 246.18 272.2 238.45 285.33C231.29 298.17 216.66 304.14 206.21 298.17C196 292.2 193 277 200.5 263.84C207.67 251 222.3 245 232.45 251Z" fill="#3E3E3E"/>
<path d="M843.73 159.88C841.163 155.58 837.91 153.073 833.97 152.36C832.98 152.17 831.977 152.049 830.97 152C827.382 152.061 823.857 152.951 820.67 154.6C817.291 156.217 814.321 158.575 811.98 161.5C809.826 164.059 808.625 167.285 808.58 170.63C808.585 173.397 809.464 176.092 811.09 178.33C808.583 178.69 807.33 179.69 807.33 181.33C807.33 183.123 808.463 185.063 810.73 187.15C813.155 189.33 816.03 190.952 819.15 191.9C821.98 192.849 824.945 193.332 827.93 193.33C833.183 193.33 837.393 191.747 840.56 188.58C843.525 185.747 845.715 182.2 846.92 178.28C847.443 176.667 847.687 174.976 847.64 173.28C847.591 168.539 846.238 163.903 843.73 159.88ZM825.2 177.43C825.047 177.655 824.823 177.821 824.563 177.903C824.304 177.985 824.024 177.977 823.77 177.88C823.497 177.814 823.25 177.669 823.059 177.462C822.869 177.256 822.744 176.998 822.7 176.72C822.861 176.279 822.877 175.799 822.748 175.348C822.619 174.897 822.35 174.499 821.98 174.21C821.027 173.73 821.147 172.983 822.34 171.97C823.315 171.054 824.584 170.515 825.92 170.45C826.163 170.417 826.41 170.44 826.642 170.519C826.875 170.597 827.086 170.728 827.259 170.901C827.432 171.074 827.563 171.285 827.641 171.518C827.72 171.75 827.743 171.997 827.71 172.24C827.7 173.79 826.87 175.54 825.2 177.43Z" fill="#3E3E3E"/>
<path d="M1228.67 305.32C1224.29 304.938 1220.08 303.489 1216.39 301.1C1213.72 299.22 1210.16 296.463 1205.7 292.83C1201.27 289.2 1196.64 285.32 1191.8 281.14C1186.96 276.96 1182.13 272.89 1177.29 268.86C1172.45 264.83 1168.29 261.47 1164.8 258.78C1172.23 255.615 1179.21 251.479 1185.55 246.48C1191.46 241.9 1196.93 236.774 1201.88 231.17C1205.89 226.686 1209.47 221.827 1212.55 216.66C1215.1 212.227 1216.38 208.937 1216.39 206.79C1216.47 203.537 1215.47 200.348 1213.57 197.71C1211.64 195.133 1209.25 192.945 1206.51 191.26C1203.73 189.56 1200.75 188.216 1197.64 187.26C1194.97 186.4 1192.19 185.928 1189.39 185.86C1186.39 185.86 1183.27 187.01 1179.91 189.28C1176.15 191.908 1172.64 194.877 1169.43 198.15C1165.8 201.777 1162.11 205.877 1158.35 210.45C1154.59 215.023 1150.96 219.727 1147.47 224.56C1159.29 199.307 1168.09 180.097 1173.86 166.93C1179.63 153.763 1182.52 145.703 1182.53 142.75C1182.6 141.188 1182.31 139.632 1181.68 138.201C1181.05 136.77 1180.1 135.504 1178.9 134.5C1176.42 132.45 1173.63 130.816 1170.63 129.66C1167.65 128.479 1164.54 127.666 1161.36 127.24C1159.04 126.899 1156.7 126.695 1154.36 126.63C1152.75 126.63 1151.94 127.167 1151.94 128.24C1152.01 129.141 1152.22 130.026 1152.54 130.87C1152.99 132.371 1153.19 133.934 1153.15 135.5C1153.23 137.414 1152.95 139.325 1152.34 141.14C1150.19 145.973 1147.64 152.42 1144.68 160.48C1141.72 168.54 1138.69 176.933 1135.6 185.66C1132.51 194.407 1129.63 202.807 1126.94 210.86C1126.07 213.47 1125.25 215.86 1124.51 218.16C1121.84 219.8 1117.03 225.89 1110.06 236.43C1102.91 247.21 1095.65 259.12 1088.27 272.16C1087.77 268.786 1086.92 265.474 1085.72 262.28C1079.37 246.52 1076.2 233.757 1076.2 223.99C1076.2 217.323 1077.62 212.563 1080.45 209.71C1081.8 208.331 1083.41 207.243 1085.2 206.512C1086.98 205.781 1088.89 205.423 1090.82 205.46C1092.78 205.448 1094.73 205.735 1096.61 206.31C1098.02 206.682 1099.35 207.317 1100.52 208.18C1102.1 209.66 1102.91 211.02 1102.91 212.27L1102.73 214.27C1102.77 214.856 1102.93 215.428 1103.2 215.953C1103.46 216.478 1103.82 216.946 1104.27 217.33C1104.8 217.785 1105.45 218.08 1106.14 218.18C1107.14 218.18 1107.99 217.52 1108.62 216.18C1109.28 214.65 1109.6 212.995 1109.55 211.33C1109.54 209.212 1109.17 207.111 1108.45 205.12C1107.77 203.102 1106.64 201.267 1105.14 199.76C1102.55 196.938 1099.35 194.751 1095.78 193.37C1092.15 191.954 1088.28 191.235 1084.38 191.25C1077.83 191.299 1071.41 193.057 1065.75 196.35C1059.62 199.807 1054.49 204.788 1050.85 210.81C1046.9 217.274 1044.87 224.727 1045 232.3C1045.04 238.524 1046.19 244.691 1048.4 250.51C1041.25 254.93 1035.97 259.69 1032.56 264.79C1029.15 269.89 1027.45 274.993 1027.47 280.1C1027.44 284.549 1028.74 288.905 1031.2 292.61C1033.74 296.436 1037.23 299.537 1041.33 301.61C1045.61 303.827 1050.38 304.963 1055.2 304.92C1059.87 304.884 1064.47 303.861 1068.72 301.92C1073.52 299.702 1077.82 296.551 1081.39 292.65C1083.66 291.07 1085.7 288.34 1087.52 284.49C1096.64 266.292 1107.32 248.923 1119.45 232.58C1117.91 236.4 1116.45 240.33 1114.97 244.42C1113.22 249.407 1111.68 254.313 1110.34 259.14C1109 263.98 1107.92 268.48 1107.12 272.63C1106.32 276.78 1104.42 287.96 1104.42 291.18C1104.42 296.82 1105.75 300.85 1108.42 303.27C1111.09 305.69 1113.5 306.9 1115.67 306.9C1116.48 306.9 1117.14 305.827 1117.67 303.68C1118.2 301.533 1119 298.643 1120.09 295.01C1121.16 291.38 1123.93 279.89 1125.4 275.46C1127.09 270.59 1129.32 265.927 1132.06 261.56C1136.63 261.56 1141.26 263.307 1145.96 266.8C1151.09 270.68 1155.88 274.996 1160.27 279.7C1165.1 284.807 1169.94 290.45 1174.78 296.63C1179.62 302.81 1184.39 308.453 1189.08 313.56C1193.37 318.29 1198.09 322.609 1203.19 326.46C1207.89 329.953 1212.53 331.7 1217.1 331.7C1221.01 331.822 1224.85 330.613 1227.98 328.27C1230.94 325.987 1233.46 323.193 1235.43 320.02C1237.37 316.955 1238.86 313.628 1239.86 310.14C1240.69 307.464 1241.17 304.69 1241.28 301.89C1237.61 304.469 1233.14 305.683 1228.67 305.32ZM1052.25 283.51C1050.86 286.005 1048.59 287.889 1045.88 288.79C1044.57 287.924 1043.55 286.674 1042.98 285.21C1042.28 283.488 1041.94 281.639 1041.98 279.78C1041.99 276.102 1042.89 272.481 1044.61 269.23C1046.08 266.088 1048.66 263.597 1051.85 262.23C1053.59 266.025 1054.52 270.144 1054.57 274.32C1054.65 277.536 1053.85 280.713 1052.26 283.51H1052.25ZM1155.32 251.12C1150.94 254.331 1145.64 256.03 1140.21 255.96C1138.86 256.018 1137.52 255.883 1136.21 255.56C1140.57 248.867 1145.28 242.411 1150.32 236.22C1155.15 230.307 1159.52 225.267 1163.41 221.1C1167.3 216.933 1171.94 212.3 1177.32 207.2C1178.65 206.393 1179.46 206.663 1179.74 208.01C1180 209.327 1180.14 210.667 1180.14 212.01C1179.09 216.506 1177.61 220.89 1175.71 225.1C1173.49 230.2 1170.65 235.006 1167.25 239.41C1163.86 243.872 1159.84 247.817 1155.32 251.12Z" fill="#3E3E3E"/>
<path d="M638.81 190.15C639.922 191.143 641.225 191.899 642.64 192.37C644.911 193.122 647.299 193.461 649.69 193.37C652.11 193.37 654.597 191.757 657.15 188.53C659.84 185.093 662.264 181.456 664.4 177.65C665.844 175.387 667.028 172.968 667.93 170.44L669.93 165.36C670.66 163.533 670.945 161.559 670.76 159.6C670.584 158.135 670.176 156.707 669.55 155.37C668.829 153.825 667.879 152.399 666.73 151.14C665.382 149.722 663.641 148.74 661.73 148.32C659.33 147.191 656.721 146.574 654.07 146.51C651.11 146.377 648.693 146.31 646.82 146.31C645.412 146.271 644.009 146.474 642.67 146.91C641.06 147.31 640.25 148.06 640.25 149.13C640.318 149.918 640.546 150.683 640.92 151.38C641.28 152.16 641.23 153.77 641.23 155.92C641.23 161.3 640.81 163.92 639.64 170.57C638.43 177.47 636.84 181.2 636.84 185.76C636.868 186.443 637.003 187.118 637.24 187.76C637.573 188.667 638.11 189.484 638.81 190.15Z" fill="#3E3E3E"/>
<path d="M1267.83 161.37C1265.26 157.07 1262.01 154.564 1258.07 153.85C1257.08 153.66 1256.08 153.54 1255.07 153.49C1251.48 153.551 1247.96 154.441 1244.77 156.09C1241.36 157.7 1238.36 160.062 1236 163C1233.85 165.559 1232.64 168.786 1232.6 172.13C1232.61 174.897 1233.48 177.592 1235.11 179.83C1232.6 180.19 1231.35 181.19 1231.35 182.83C1231.35 184.624 1232.48 186.564 1234.75 188.65C1237.18 190.83 1240.05 192.452 1243.17 193.4C1246 194.349 1248.97 194.832 1251.95 194.83C1257.2 194.83 1261.41 193.247 1264.58 190.08C1267.55 187.247 1269.73 183.701 1270.94 179.78C1271.46 178.167 1271.71 176.476 1271.66 174.78C1271.64 170.044 1270.31 165.405 1267.83 161.37ZM1249.29 178.92C1249.14 179.145 1248.91 179.312 1248.65 179.393C1248.39 179.475 1248.11 179.467 1247.86 179.37C1247.59 179.304 1247.34 179.159 1247.15 178.953C1246.96 178.746 1246.83 178.488 1246.79 178.21C1246.95 177.769 1246.97 177.289 1246.84 176.839C1246.71 176.388 1246.44 175.99 1246.07 175.7C1245.12 175.22 1245.24 174.474 1246.43 173.46C1247.41 172.544 1248.67 172.006 1250.01 171.94C1250.25 171.907 1250.5 171.931 1250.73 172.009C1250.96 172.087 1251.18 172.218 1251.35 172.391C1251.52 172.565 1251.65 172.776 1251.73 173.008C1251.81 173.24 1251.83 173.487 1251.8 173.73C1251.79 175.28 1251 177 1249.29 178.92Z" fill="#3E3E3E"/>
<path d="M1265.35 310.23C1265.29 309.65 1263.98 309.78 1263.2 309.93C1260.3 310.48 1255.89 310.93 1245.93 310.93C1245.86 311.21 1245.8 311.47 1245.72 311.77C1244.56 315.802 1242.84 319.65 1240.6 323.2C1238.25 326.971 1235.24 330.296 1231.73 333.02C1227.55 336.171 1222.42 337.816 1217.19 337.69C1211.34 337.69 1205.46 335.53 1199.73 331.27C1194.34 327.197 1189.34 322.63 1184.79 317.63C1182.43 315.06 1180.03 312.35 1177.63 309.5L1170.97 309.31C1136.49 308.31 787.72 300.68 546.97 302.82C553.57 285.88 572.76 236.13 576.52 226.41C580.76 215.437 582.883 207.93 582.89 203.89C582.89 201.35 581.337 198.463 578.23 195.23C575.025 191.925 571.377 189.081 567.39 186.78C563.27 184.36 559.82 183.17 557.03 183.17C554.63 183.17 553.22 184.17 552.85 186.17C551.801 191.194 550.438 196.147 548.77 201C546.937 206.447 543.867 214.87 539.56 226.27L531.75 247.18C530.87 249.467 528.687 253.333 525.2 258.78C521.713 264.227 518.007 269.48 514.08 274.54C510.153 279.613 506.923 283.037 504.39 284.81C504.763 283.423 508.057 275.06 514.27 259.72C518.33 249.72 522.29 239.743 526.15 229.79C530.01 219.837 532.01 213.977 532.15 212.21C532.286 211.266 532.35 210.313 532.34 209.36C532.363 208.094 532.136 206.837 531.67 205.66C531.078 204.365 530.277 203.176 529.3 202.14C527.407 200.367 523.287 197.547 516.94 193.68C510.61 189.83 506.04 187.68 503.25 187.32C502.827 187.229 502.387 187.277 501.993 187.457C501.6 187.637 501.276 187.94 501.07 188.32C500.606 189.229 500.379 190.24 500.41 191.26V192.02C500.41 196.333 499.047 202.383 496.32 210.17C493.593 217.957 489.567 228.503 484.24 241.81C480.447 251.063 477.567 258.317 475.6 263.57C473.936 267.786 472.631 272.134 471.7 276.57C471.447 277.717 473.253 280.05 477.12 283.57C481.107 287.218 485.362 290.561 489.85 293.57C494.48 296.67 497.73 298.23 499.64 298.23C501.907 298.23 505.07 296.33 509.13 292.53C513.559 288.311 517.629 283.732 521.3 278.84C519.407 283.78 516.81 289.707 513.51 296.62C512.26 299.25 511.18 301.4 510.26 303.13C488.26 303.43 422.01 303.83 403.33 304.34C386.67 304.79 369.79 313.79 369.79 325.73C369.79 341.49 434.87 373.23 464.04 373.23C502.85 373.23 528.19 344.3 539.04 322.42C932.04 323.42 1217.19 363.42 1229.52 364.42C1241.85 365.42 1259.45 360.21 1264.6 335.94C1266.18 328.53 1265.71 313.93 1265.35 310.23ZM460.35 349.71C440.01 349.71 425.48 342.98 406.82 334.5C395.36 329.28 390.12 323.02 408.82 322.9C435.12 322.71 487.38 322.59 503.57 322.53C495 337.46 478.68 349.71 460.3 349.71H460.35Z" fill="#3E3E3E"/>
<path d="M1286.29 213.56C1285.81 213.68 1284.81 213.83 1283.29 214.01C1282.72 214.004 1282.16 214.121 1281.64 214.352C1281.13 214.583 1280.66 214.924 1280.29 215.35C1275.28 222.997 1266.28 235.743 1253.29 253.59C1240.3 271.437 1233.8 279.347 1233.77 277.32C1233.77 275.647 1237.77 263.407 1245.77 240.6C1252.44 221.02 1255.77 210.687 1255.77 209.6C1255.65 205.66 1253.14 202.407 1248.25 199.84C1243.36 197.273 1236.73 195.453 1228.37 194.38C1227.3 195.22 1224.4 202.027 1219.68 214.8C1214.96 227.573 1210.24 241.007 1205.53 255.1C1200.81 269.193 1198.45 276.657 1198.46 277.49C1198.46 279.757 1200.01 282.503 1203.12 285.73C1206.36 289.058 1210.06 291.895 1214.12 294.15C1218.35 296.537 1222.02 297.73 1225.12 297.73C1226.57 297.791 1228 297.418 1229.24 296.66C1231.03 295.467 1240.7 282.6 1258.24 258.06C1275.78 233.52 1285.15 219.997 1286.36 217.49C1286.57 216.915 1286.69 216.312 1286.72 215.7C1286.74 214.963 1286.6 214.23 1286.29 213.56Z" fill="#3E3E3E"/>
<path d="M58.2199 312.79C51.0199 313 40.8699 317.79 34.7399 321.34C33.9799 321.78 33.3099 323.42 34.1899 323.42C82.3499 323.65 276.25 319.88 362.92 321.34C364.87 313.98 371.51 308.15 379.92 304.45C282.33 305.86 113.09 311.16 58.2199 312.79Z" fill="#3E3E3E"/>
<path d="M472.08 191.8C468.08 195.8 462.75 197.86 456.29 197.86C452.826 197.86 449.385 197.299 446.1 196.2C442.392 195.049 438.979 193.104 436.1 190.5C435.526 189.971 434.981 189.41 434.47 188.82C424.643 189.127 416.106 189.417 408.86 189.69C406.466 189.81 404.226 191.423 402.14 194.53C399.923 197.909 398.205 201.59 397.04 205.46C395.843 208.853 395.155 212.405 395 216C394.94 217.103 395.124 218.206 395.54 219.23C396.26 220.423 401.693 221.02 411.84 221.02C420.793 221.02 433.57 220.543 450.17 219.59L457.17 219.23C454.17 223.89 444.37 229.11 431.98 237.33C420.28 245.09 400.92 255.41 386.71 264.73L381 268.49C379.566 269.443 378.79 270.31 378.67 271.09C378.55 271.87 378.37 272.317 378.13 272.43L373.47 273.5C371.249 273.84 369.077 274.445 367 275.3C366.398 275.625 365.906 276.122 365.588 276.728C365.269 277.333 365.137 278.02 365.21 278.7C365.238 280.043 365.481 281.374 365.93 282.64C367.299 287.481 369.034 292.211 371.12 296.79C372.793 300.25 375.126 302.28 378.12 302.88C379.686 302.931 381.252 302.78 382.78 302.43C385.166 302.01 388.63 301.293 393.17 300.28C397.71 299.267 400.71 298.58 402.17 298.22C427.6 292.13 463.17 290.49 463.17 301.87C463.17 303.07 467.76 299.41 469.55 296.42C471.416 293.152 472.347 289.432 472.24 285.67C472.255 284.667 472.195 283.664 472.06 282.67C471.22 275.15 466.98 269.927 459.34 267C451.7 264.073 442.446 262.61 431.58 262.61C423.429 262.673 415.292 263.271 407.22 264.4C409.85 261.3 425.39 252.35 441.65 242.11C458.48 231.51 475.28 222.67 488.06 214.43C489.966 213.097 491.726 210.097 493.34 205.43C494.821 201.471 495.638 197.295 495.76 193.07C495.76 189.49 494.923 187.64 493.25 187.52C492 187.36 486.13 187.39 475.68 187.63C474.598 189.118 473.394 190.513 472.08 191.8Z" fill="#3E3E3E"/>
<path d="M1103.17 141.23C1101.08 139.023 1097.59 137.74 1092.69 137.38C1081.36 136.427 1068.19 146.817 1053.19 168.55C1038.36 190.012 1025.21 212.589 1013.87 236.08C1002.62 259.36 994.507 277.093 989.52 289.28C990.594 285.22 991.927 280.623 993.52 275.49C995.114 270.357 996.697 265.163 998.27 259.91C1007.6 228.983 1012.92 210.773 1014.21 205.28C1014.57 203.607 1012.81 201.367 1008.93 198.56C1004.72 195.574 1000.19 193.081 995.41 191.13C990.277 188.983 986.277 187.91 983.41 187.91C981.857 187.91 980.9 188.387 980.54 189.34C979.879 191.335 979.341 193.369 978.93 195.43C978.33 197.577 976.39 204.413 973.11 215.94C969.83 227.467 966.934 236.333 964.42 242.54C962.154 247.673 958.094 255.047 952.24 264.66C946.387 274.273 942.447 280.033 940.42 281.94C943.88 272.147 948 258.743 952.78 241.73C957.56 224.717 959.65 214.18 959.05 210.12C958.93 208.687 956.9 206.777 952.96 204.39C948.729 201.849 944.27 199.71 939.64 198C934.687 196.147 930.777 195.22 927.91 195.22C925.524 195.22 924.21 195.937 923.97 197.37C923.97 198.703 921.464 209.927 916.45 231.04C916.05 232.833 914.977 237.527 913.23 245.12C911.99 247.12 910.68 249.06 909.23 251.12C901.933 261.891 893.723 272.015 884.69 281.38C876.484 289.74 871.577 292.92 869.97 290.92C869.406 289.961 869.161 288.847 869.27 287.74C869.402 284.568 869.923 281.425 870.82 278.38C871.76 274.772 872.912 271.222 874.27 267.75C875.54 264.59 876.27 263.11 876.51 263.33C877.669 264.185 879.07 264.651 880.51 264.66C884.764 264.66 889.73 261.43 895.41 254.97C901.333 248.142 906.314 240.551 910.22 232.4C914.414 223.82 916.507 216.91 916.5 211.67C916.522 210.94 916.469 210.209 916.34 209.49C916.01 208.046 915.295 206.719 914.27 205.65C913.896 205.243 913.444 204.914 912.941 204.684C912.437 204.454 911.893 204.327 911.34 204.31C910.668 204.27 910.002 204.449 909.44 204.82C909.9 203.58 908.26 201.7 904.53 199.13C900.504 196.391 896.244 194.012 891.8 192.02C887.04 189.84 883.44 188.75 881.04 188.75C876.327 188.75 870.327 193.547 863.04 203.14C855.763 212.88 849.652 223.438 844.83 234.6C840.577 240.6 835.54 247.577 829.72 255.53C816.387 273.83 809.72 281.94 809.72 279.86C809.72 278.147 813.82 265.6 822.02 242.22C828.874 222.16 832.3 211.577 832.3 210.47C832.17 206.47 829.6 203.1 824.58 200.47C819.56 197.84 812.77 195.98 804.21 194.87C803.104 195.723 800.134 202.7 795.3 215.8L794.1 219C793.837 219.065 793.583 219.159 793.34 219.28C790.774 220.613 786.46 225.693 780.4 234.52C774.34 243.347 767.874 253.577 761 265.21C763.7 257.877 770.247 240.68 780.64 213.62C781.002 212.682 781.189 211.685 781.19 210.68C781.19 207.62 779.61 204.68 776.41 201.86C772.972 198.891 769.07 196.507 764.86 194.8C760.873 193.061 756.673 191.857 752.37 191.22C749.924 190.847 745.764 193.817 739.89 200.13C734.168 206.236 728.771 212.638 723.72 219.31C727.767 209.143 729.604 203.207 729.23 201.5C728.99 200.4 727.23 198.78 723.83 196.63C720.255 194.376 716.47 192.47 712.53 190.94C708.364 189.28 705 188.453 702.44 188.46C700.23 188.46 698.95 189.13 698.57 190.46C697.237 195.127 692.067 210.127 683.06 235.46C674.46 259.687 669.077 274.393 666.91 279.58C665.69 272.91 661.57 268.19 654.48 265.47C646.84 262.543 637.587 261.08 626.72 261.08C618.57 261.142 610.432 261.74 602.36 262.87C604.97 259.77 621.63 250.65 637.66 240.32C653.69 229.99 671.9 221.14 684.66 212.9C686.56 211.59 688.33 208.6 689.94 203.9C691.421 199.941 692.239 195.765 692.36 191.54C692.36 187.96 691.524 186.11 689.85 185.99C688.31 185.78 679.74 185.89 664.22 186.29C663.04 188.04 661.83 189.71 660.59 191.29C657.16 195.63 653.47 197.83 649.59 197.83C646.648 197.931 643.713 197.491 640.93 196.53C638.926 195.841 637.089 194.737 635.54 193.29C634.325 192.127 633.4 190.696 632.84 189.11C632.641 188.504 632.48 187.886 632.36 187.26C621.987 187.573 613.017 187.877 605.45 188.17C603.05 188.29 600.81 189.903 598.73 193.01C596.513 196.389 594.796 200.07 593.63 203.94C592.438 207.343 591.764 210.906 591.63 214.51C591.571 215.61 591.755 216.709 592.17 217.73C592.884 218.923 598.317 219.52 608.47 219.52C617.424 219.52 630.2 219.043 646.8 218.09L653.8 217.73C650.8 222.39 639.8 228.03 627.99 235.57C616.18 243.11 596.18 253.93 582 263.24L576.24 267C574.81 268 574.02 268.82 573.91 269.6C573.8 270.38 573.61 270.82 573.37 270.94L568.71 272C566.497 272.337 564.331 272.938 562.26 273.79C561.657 274.114 561.165 274.611 560.846 275.217C560.527 275.822 560.396 276.509 560.47 277.19C560.498 278.533 560.741 279.864 561.19 281.13C562.56 285.971 564.295 290.701 566.38 295.28C568.05 298.74 570.38 300.76 573.38 301.37C574.946 301.414 576.512 301.263 578.04 300.92C580.43 300.49 583.88 299.77 588.43 298.77C592.98 297.77 595.95 297.07 597.43 296.71C622.86 290.62 657.14 290.81 657.14 300.22C657.14 302.22 662.96 298.4 664.75 295.41C666.252 292.71 667.14 289.712 667.35 286.63C668.371 288.27 669.683 289.71 671.22 290.88C674.749 293.661 678.641 295.946 682.79 297.67C687.137 299.503 690.47 300.423 692.79 300.43C694.01 300.43 694.69 300.18 694.79 299.68C699.564 286.587 706.42 270.83 715.36 252.41C724.3 233.99 734.454 218.353 745.82 205.5C742.147 213.707 737.1 227.353 730.68 246.44C724.26 265.527 721.034 276.803 721 280.27C721 282.72 723 285.55 726.87 288.81C730.889 292.109 735.247 294.972 739.87 297.35C744.57 299.783 747.477 300.883 748.59 300.65H748.95C755.103 286.856 762.221 273.513 770.25 260.72C776.19 251.493 782.4 242.493 788.88 233.72C786.214 241.333 783.52 249.153 780.8 257.18C775.967 271.613 773.554 279.26 773.56 280.12C773.56 282.447 775.147 285.263 778.32 288.57C781.647 291.981 785.454 294.888 789.62 297.2C793.967 299.647 797.727 300.87 800.9 300.87C802.386 300.937 803.857 300.553 805.12 299.77C806.954 298.543 816.87 285.357 834.87 260.21L837.14 257.03C836.152 261.2 835.626 265.465 835.57 269.75C835.57 274.09 836.21 277.56 837.47 280.12C838.73 282.68 841.47 285.4 845.65 288.64C849.973 291.941 854.673 294.717 859.65 296.91C864.757 299.197 869.204 300.34 872.99 300.34C874.154 300.355 875.312 300.183 876.42 299.83C878.6 299.163 883.97 293.923 892.53 284.11C898.157 277.663 903.684 270.787 909.11 263.48C906.53 274.987 905.237 281.623 905.23 283.39C905.23 285.777 907.17 288.403 911.05 291.27C914.96 294.151 919.2 296.555 923.68 298.43C928.22 300.33 930.84 301.06 931.56 300.58C932.126 300.06 932.814 299.692 933.56 299.51C934.341 299.591 935.059 299.975 935.56 300.58C935.867 300.881 936.232 301.116 936.632 301.271C937.033 301.425 937.461 301.497 937.89 301.48C938.255 301.504 938.621 301.452 938.965 301.328C939.309 301.204 939.624 301.011 939.89 300.76L945.08 291.63C953.56 277.063 958.397 269.003 959.59 267.45L959.41 271.57C959.17 273.957 959.05 275.747 959.05 276.94C959.05 282.94 960.9 287.717 964.6 291.27C966.971 293.403 969.551 295.293 972.3 296.91C975.049 298.754 977.993 300.286 981.08 301.48C981.61 301.63 982.147 301.75 982.69 301.84C983.151 301.842 983.607 301.751 984.03 301.57C984.454 301.389 984.91 301.297 985.37 301.3C986.204 301.3 987.204 301.897 988.37 303.09C988.873 303.497 989.516 303.691 990.16 303.63C990.9 303.625 991.631 303.472 992.31 303.18C992.911 302.977 993.418 302.566 993.74 302.02C1004.54 278.86 1016.64 256.334 1030 234.55C1043.85 211.923 1056.99 193.297 1069.41 178.67C1081.83 164.043 1091.32 156.73 1097.89 156.73C1098.75 156.695 1099.6 156.836 1100.41 157.144C1101.21 157.451 1101.94 157.92 1102.55 158.52C1102.79 158.76 1103.24 158.427 1103.89 157.52C1104.65 156.398 1105.23 155.158 1105.59 153.85C1106.07 152.282 1106.31 150.65 1106.31 149.01C1106.33 146.104 1105.2 143.307 1103.17 141.23ZM885.83 241.54C889.624 234.793 893.624 228.357 897.83 222.23C902.037 216.103 904.854 212.597 906.28 211.71C906.507 215.043 905.044 220.083 901.89 226.83C898.769 233.509 894.958 239.843 890.52 245.73C886.1 251.583 882.284 255.177 879.07 256.51C879.784 253.277 882.037 248.287 885.83 241.54Z" fill="#3E3E3E"/>
<path d="M455.44 134.62C454.06 132.217 452.342 130.025 450.34 128.11C448.779 126.572 447.004 125.269 445.07 124.24C443.43 123.42 442.49 123.24 442.26 123.72C440.38 127.467 436.63 131.333 431.01 135.32C425.291 139.37 419.366 143.121 413.26 146.56C407.053 150.08 401.43 153.08 396.39 155.56C391.39 158.01 388.49 159.37 387.78 159.56C386.184 153.796 383.883 148.251 380.93 143.05C378.115 138.034 374.562 133.47 370.39 129.51C366.349 125.696 361.724 122.553 356.69 120.2C351.69 117.87 343.33 116.69 337.69 116.69C336.165 116.547 334.63 116.57 333.11 116.76C333.04 117.45 332.98 118.14 332.9 118.82L332.26 124.07H332.11C329.07 141.567 321.37 157.92 309.82 171.41C297.73 185.99 280.68 200.54 261.62 212.56L258.76 214.32C257 215.393 255.24 216.437 253.48 217.45C252.05 224.543 251.36 231.765 251.42 239C251.461 246.41 252.347 253.791 254.06 261C255.757 268.484 258.855 275.578 263.19 281.91C267.663 288.368 273.558 293.715 280.42 297.54C287.553 301.647 296.513 303.697 307.3 303.69C321.587 303.69 334.007 299.77 344.56 291.93C355.133 284.054 364.08 274.206 370.91 262.93C377.94 251.449 383.269 239.01 386.73 226C390.243 212.873 392 201.157 392 190.85C392 188.97 391.94 187.28 391.82 185.75C391.7 184.22 391.66 182.75 391.66 181.36C399.54 180.646 407.315 179.053 414.84 176.61C420.639 174.714 426.282 172.374 431.72 169.61C433.913 168.463 435.913 167.33 437.72 166.21C439.539 165.115 441.289 163.909 442.96 162.6C445.767 160.373 447.99 158.673 449.63 157.5C451.373 156.08 452.937 154.455 454.29 152.66C456.299 150.137 457.487 147.059 457.693 143.841C457.898 140.622 457.112 137.418 455.44 134.66V134.62ZM336 144.46H340C342.189 144.405 344.362 144.833 346.367 145.713C348.372 146.592 350.158 147.902 351.6 149.55C354.805 153.247 357.097 157.645 358.29 162.39C354.163 162.528 350.048 161.869 346.17 160.45C343.389 159.401 340.824 157.852 338.6 155.88C336.944 154.394 335.586 152.605 334.6 150.61C333.877 149.252 333.454 147.755 333.36 146.22C333.55 145 334.41 144.46 336 144.46ZM360.24 233.9C358.116 243.819 354.629 253.396 349.88 262.36C345.454 270.82 339.425 278.34 332.13 284.5C324.983 290.5 316.37 293.5 306.29 293.5C300.807 293.669 295.388 292.282 290.66 289.5C286.347 286.825 282.682 283.224 279.93 278.96C277.103 274.588 275.025 269.775 273.78 264.72C272.522 259.781 271.874 254.707 271.85 249.61C271.85 238.357 273.493 228.87 276.78 221.15C279.543 214.245 283.399 207.829 288.2 202.15C291.864 197.828 296.119 194.044 300.84 190.91C304.94 188.33 307.84 186.58 309.45 185.64C315.303 182.353 318.877 179.31 320.17 176.51C321.288 174.334 321.948 171.951 322.11 169.51C322.144 168.21 322.023 166.911 321.75 165.64C324.13 168.433 327.061 170.704 330.36 172.31C333.965 174.164 337.71 175.733 341.56 177C345.427 178.287 349.177 179.34 352.81 180.16C355.757 180.89 358.775 181.299 361.81 181.38C362.29 183.96 362.69 187.38 363.05 191.57C363.41 195.76 363.57 200.57 363.57 205.97C363.441 215.374 362.308 224.737 360.19 233.9H360.24Z" fill="#3E3E3E"/>
<path d="M197.57 0C151.77 0 109.22 13.73 73.95 40.93C48.08 60.87 26.81 85.65 8.20998 111.5C4.20998 117.43 -2.79002 127.67 1.20998 134.13C5.20998 140.32 14.42 139.25 19.79 136.83C27.88 132.52 32.73 120.93 35.96 112.57C39.74 102.57 48.62 80.57 62.1 66.25C88.48 37.7 132.92 17 170.37 15.34C216.69 12.65 287.53 46.34 287.8 99.64C287.8 114.19 284.31 130.08 272.72 147.85C258.17 170.48 235.54 190.41 211.3 203.35C194.61 212.23 174.13 216.01 157.16 213.35C158.79 207.16 161.47 200.96 164.16 194.23C171.97 173.77 183.28 146.29 191.62 121.78C196.74 107.78 204.55 89.2 205.62 74.37C206.44 58.47 195.13 52.55 184.08 56.86C160.38 64.4 133.43 89.73 119.43 109.39C108.12 125.82 100.58 144.14 99.77 160.83C98.16 181.04 106.77 198.28 119.43 211.21C117.01 219.55 114.85 227.11 113.24 234.64C107.05 261.57 106.51 293.36 131.55 305.75C135.06 307.36 138.28 308.97 140.98 309.51V297.35C139.08 290.35 139.08 280.93 140.44 269.08C140.71 266.65 140.71 264.5 140.98 262.08C142.86 252.39 146.1 242.69 150.4 230.84C152.83 231.65 155.52 232.74 157.95 233.27C188.41 240.27 224.9 228.06 255.64 209.27C275.72 197 293.36 181.92 305.27 167.57C317.272 153.608 324.837 136.384 327 118.1C327.498 113.946 327.722 109.764 327.67 105.58C325.5 35.55 261.41 0 197.57 0ZM124 196.07C123.336 195.13 122.615 194.231 121.84 193.38C104.35 168.6 118.35 136.27 133.15 113.38C138.85 105.57 148 91 163.62 79.18C162 83 160.94 87.26 159.33 91C146.94 126.32 134.28 160.52 124 196.07Z" fill="#3E3E3E"/>
<path d="M472.14 159.88C469.573 155.58 466.32 153.073 462.38 152.36C461.39 152.17 460.387 152.049 459.38 152C457.694 152.01 456.015 152.221 454.38 152.63C452.567 153.119 450.808 153.789 449.13 154.63C445.751 156.247 442.78 158.605 440.44 161.53C439.302 162.932 438.413 164.518 437.81 166.22C437.306 167.649 437.048 169.154 437.05 170.67C437.055 173.437 437.933 176.132 439.56 178.37C437.053 178.73 435.8 179.73 435.8 181.37C435.8 183.163 436.933 185.103 439.2 187.19C441.625 189.37 444.499 190.992 447.62 191.94C450.45 192.889 453.415 193.372 456.4 193.37C461.653 193.37 465.863 191.787 469.03 188.62C471.995 185.786 474.185 182.24 475.39 178.32C475.913 176.707 476.157 175.016 476.11 173.32C476.05 168.56 474.676 163.909 472.14 159.88ZM453.6 177.43C453.447 177.655 453.222 177.821 452.963 177.903C452.703 177.985 452.424 177.977 452.17 177.88C451.897 177.814 451.649 177.669 451.459 177.462C451.268 177.256 451.143 176.998 451.1 176.72C451.259 176.279 451.275 175.799 451.146 175.349C451.016 174.898 450.748 174.5 450.38 174.21C449.426 173.73 449.546 172.983 450.74 171.97C451.715 171.054 452.984 170.515 454.32 170.45C454.563 170.417 454.81 170.44 455.042 170.519C455.274 170.597 455.485 170.728 455.659 170.901C455.832 171.074 455.963 171.285 456.041 171.518C456.119 171.75 456.143 171.997 456.11 172.24C456.11 173.79 455.27 175.54 453.6 177.43Z" fill="#3E3E3E"/>
</svg>
