<svg width="100%" height="100%" viewBox="0 0 664.81 768" fill="none" xmlns="http://www.w3.org/2000/svg" aria-labelledby="theLogoFullWhiteID" role="img">
<title id="theLogoFullWhiteID">Full white logo</title>
  <g data-name="Layer 2">
    <g data-name="Layer 1">
      <path d="M650.72 568L332.41 751.74 14.09 568v-62.81L0 505.34v70.74L332.41 768l332.4-191.92v-51.67q-7-.76-14.09-1.44zM14.11 200.05L332.43 16.28l318.31 183.77v142.3a.31.31 0 00.07.18.29.29 0 00.14.13.34.34 0 00.2 0 .48.48 0 00.18-.08c2-1.85 8.59-7.76 12.25-8.6a1.49 1.49 0 00.85-.52 1.46 1.46 0 00.36-.93V191.92L332.43 0l-3.53 2L0 191.93v35.25a.94.94 0 00.07.37 1 1 0 00.21.3.79.79 0 00.31.2.86.86 0 00.36.07c2.89 0 9.88 1.46 12.3 2a.76.76 0 00.3 0 .92.92 0 00.28-.14.72.72 0 00.19-.24.66.66 0 00.07-.3z" fill="#efefef"/>
      <path d="M382.6 117.79c-81.73 0-157.7 24.51-220.66 73.06-46.18 35.6-84.15 79.83-117.35 126-7.14 10.59-19.64 28.87-12.5 40.4 7.14 11 23.58 9.14 33.17 4.82 14.44-7.69 23.1-28.38 28.86-43.31 6.75-17.85 22.6-57.12 46.67-82.68 47.1-51 126.43-88 193.28-90.88 82.68-4.8 209.13 55.34 209.62 150.48 0 26-6.23 54.34-26.92 86.06-26 40.41-66.39 75.94-109.66 99.14-29.79 15.85-66.35 22.6-96.64 17.85 2.91-11.05 7.69-22.12 12.5-34.13 13.94-36.52 34.13-85.57 49-129.32 9.14-25 23.08-58.16 25-84.63 1.47-28.39-18.72-39-38.45-31.26-42.27 13.37-90.35 58.55-115.34 93.7-20.21 29.27-33.67 62-35.1 91.75-2.87 36.07 12.5 66.85 35.1 89.93-4.32 14.89-8.18 28.38-11.05 41.82-11 48.07-12 104.82 32.68 126.94 6.27 2.87 12 5.74 16.83 6.71v-21.6c-3.39-12.49-3.39-29.31-1-50.46.48-4.34.48-8.17 1-12.49 3.36-17.3 9.14-34.62 16.82-55.77 4.34 1.45 9.14 3.39 13.48 4.34 54.37 12.49 119.5-9.3 174.38-42.84 35.84-21.9 67.33-48.82 88.59-74.44a165.28 165.28 0 0038.73-88.37 170.45 170.45 0 001.2-22.35C611 181.27 496.56 117.79 382.6 117.79zm-131.32 350a49.42 49.42 0 00-3.86-4.8c-31.22-44.23-6.23-101.94 20.19-142.8 10.11-14 26.46-39.92 54.34-61.07-2.87 6.75-4.8 14.42-7.68 21.15-22.04 63.03-44.64 124.06-62.99 187.53z" fill="#fff"/>
    </g>
  </g>
</svg>
