<svg width="100%" height="100%" viewBox="0 0 1287 1003" fill="none" xmlns="http://www.w3.org/2000/svg" aria-labelledby="theLogoFullWhiteID" role="img">
<title id="theLogoFullWhiteID">Paul The Developer full white logo</title>
<path d="M1059.13 741.29L643.41 981.29L227.69 741.29V659.29L209.29 659.49V751.88L643.41 1002.52L1077.53 751.88V684.39C1071.42 683.723 1065.29 683.097 1059.13 682.51V741.29Z" fill="#EFEFEF"/>
<path d="M227.69 261.26L643.41 21.26L1059.13 261.26V447.1C1059.13 447.187 1059.16 447.272 1059.21 447.345C1059.25 447.418 1059.32 447.476 1059.4 447.511C1059.48 447.547 1059.57 447.559 1059.66 447.547C1059.74 447.534 1059.82 447.497 1059.89 447.44C1062.49 445.03 1071.12 437.31 1075.89 436.21C1076.33 436.118 1076.72 435.882 1077.01 435.54C1077.3 435.197 1077.46 434.768 1077.48 434.32V250.64L643.41 0L638.81 2.66L209.29 250.66V296.7C209.29 296.862 209.322 297.022 209.385 297.172C209.447 297.321 209.539 297.456 209.654 297.57C209.77 297.683 209.907 297.773 210.057 297.833C210.207 297.893 210.368 297.923 210.53 297.92C214.3 297.92 223.43 299.83 226.59 300.52C226.723 300.548 226.86 300.547 226.992 300.515C227.124 300.483 227.247 300.423 227.352 300.337C227.458 300.252 227.543 300.144 227.601 300.022C227.66 299.9 227.69 299.766 227.69 299.63V261.26Z" fill="#EFEFEF"/>
<path d="M232.45 565.62C243.2 571.89 246.18 586.82 238.45 599.95C231.29 612.79 216.66 618.76 206.21 612.79C196.06 606.79 193.07 591.59 200.54 578.46C207.67 565.62 222.3 559.65 232.45 565.62Z" fill="white"/>
<path d="M843.73 474.49C841.164 470.163 837.92 467.667 834 467C833.01 466.81 832.008 466.69 831 466.64C827.412 466.701 823.887 467.591 820.7 469.24C817.321 470.857 814.351 473.216 812.01 476.14C809.857 478.699 808.655 481.925 808.61 485.27C808.615 488.037 809.494 490.732 811.12 492.97C808.614 493.33 807.36 494.33 807.36 495.97C807.36 497.763 808.494 499.703 810.76 501.79C813.186 503.97 816.06 505.592 819.18 506.54C822.01 507.489 824.976 507.972 827.96 507.97C833.214 507.97 837.424 506.387 840.59 503.22C843.556 500.387 845.745 496.841 846.95 492.92C847.474 491.307 847.717 489.616 847.67 487.92C847.617 483.166 846.254 478.519 843.73 474.49ZM825.2 492C825.047 492.225 824.823 492.392 824.563 492.473C824.304 492.555 824.025 492.547 823.77 492.45C823.497 492.384 823.25 492.239 823.059 492.032C822.869 491.826 822.744 491.568 822.7 491.29C822.861 490.849 822.878 490.369 822.748 489.918C822.619 489.467 822.35 489.069 821.98 488.78C821.027 488.3 821.147 487.553 822.34 486.54C823.315 485.624 824.584 485.085 825.92 485.02C826.163 484.987 826.41 485.011 826.643 485.089C826.875 485.167 827.086 485.298 827.259 485.471C827.433 485.645 827.563 485.856 827.642 486.088C827.72 486.32 827.743 486.567 827.71 486.81C827.7 488.4 826.87 490.15 825.2 492Z" fill="white"/>
<path d="M1228.67 619.93C1224.29 619.548 1220.08 618.099 1216.39 615.71C1213.72 613.83 1210.16 611.074 1205.7 607.44C1201.27 603.81 1196.64 599.93 1191.8 595.75C1186.96 591.57 1182.13 587.5 1177.29 583.47C1172.45 579.44 1168.29 576.08 1164.8 573.39C1172.23 570.225 1179.21 566.089 1185.55 561.09C1191.46 556.51 1196.93 551.384 1201.88 545.78C1205.89 541.296 1209.47 536.437 1212.55 531.27C1215.1 526.837 1216.38 523.547 1216.39 521.4C1216.47 518.147 1215.48 514.958 1213.57 512.32C1211.65 509.744 1209.25 507.555 1206.51 505.87C1203.73 504.17 1200.75 502.826 1197.64 501.87C1194.97 501.01 1192.19 500.539 1189.39 500.47C1186.39 500.47 1183.27 501.62 1179.91 503.89C1176.15 506.519 1172.64 509.488 1169.43 512.76C1165.8 516.387 1162.11 520.487 1158.35 525.06C1154.59 529.634 1150.96 534.337 1147.47 539.17C1159.29 513.917 1168.09 494.707 1173.86 481.54C1179.63 468.374 1182.52 460.314 1182.53 457.36C1182.6 455.799 1182.31 454.242 1181.68 452.811C1181.05 451.38 1180.1 450.114 1178.9 449.11C1176.42 447.061 1173.63 445.426 1170.63 444.27C1167.65 443.089 1164.54 442.276 1161.36 441.85C1159.04 441.509 1156.7 441.305 1154.36 441.24C1152.75 441.24 1151.94 441.777 1151.94 442.85C1152.01 443.751 1152.22 444.636 1152.54 445.48C1152.99 446.982 1153.19 448.544 1153.15 450.11C1153.23 452.024 1152.95 453.935 1152.34 455.75C1150.19 460.584 1147.64 467.03 1144.68 475.09C1141.72 483.15 1138.69 491.544 1135.6 500.27C1132.51 509.017 1129.63 517.417 1126.94 525.47C1126.07 528.08 1125.25 530.47 1124.51 532.77C1121.84 534.41 1117.03 540.5 1110.06 551.04C1102.91 561.82 1095.65 573.73 1088.27 586.77C1087.77 583.396 1086.92 580.084 1085.72 576.89C1079.37 561.13 1076.2 548.367 1076.2 538.6C1076.2 531.934 1077.62 527.174 1080.45 524.32C1081.79 522.931 1083.4 521.832 1085.18 521.089C1086.96 520.346 1088.87 519.975 1090.8 520C1092.76 519.988 1094.71 520.275 1096.59 520.85C1098 521.223 1099.33 521.857 1100.5 522.72C1102.08 524.2 1102.89 525.56 1102.89 526.81L1102.71 528.81C1102.75 529.396 1102.91 529.969 1103.18 530.494C1103.44 531.019 1103.8 531.486 1104.25 531.87C1104.78 532.325 1105.43 532.62 1106.12 532.72C1107.12 532.72 1107.97 532.06 1108.6 530.72C1109.26 529.191 1109.58 527.535 1109.53 525.87C1109.52 523.752 1109.15 521.651 1108.43 519.66C1107.76 517.642 1106.62 515.808 1105.12 514.3C1102.53 511.479 1099.33 509.292 1095.76 507.91C1092.13 506.494 1088.26 505.775 1084.36 505.79C1077.81 505.839 1071.39 507.597 1065.73 510.89C1059.6 514.348 1054.47 519.328 1050.83 525.35C1046.92 531.804 1044.91 539.234 1045.05 546.78C1045.09 553.004 1046.24 559.172 1048.45 564.99C1041.3 569.41 1036.02 574.17 1032.61 579.27C1029.2 584.37 1027.5 589.474 1027.52 594.58C1027.49 599.029 1028.79 603.385 1031.25 607.09C1033.79 610.916 1037.28 614.017 1041.38 616.09C1045.66 618.307 1050.43 619.443 1055.25 619.4C1059.92 619.364 1064.53 618.342 1068.77 616.4C1073.57 614.183 1077.87 611.031 1081.44 607.13C1083.71 605.55 1085.75 602.82 1087.57 598.97C1096.69 580.772 1107.37 563.404 1119.5 547.06C1117.96 550.88 1116.5 554.81 1115.02 558.9C1113.27 563.887 1111.73 568.794 1110.39 573.62C1109.05 578.46 1107.97 582.96 1107.17 587.11C1106.37 591.26 1104.47 602.44 1104.47 605.66C1104.47 611.3 1105.8 615.33 1108.47 617.75C1111.14 620.17 1113.55 621.38 1115.72 621.38C1116.53 621.38 1117.19 620.307 1117.72 618.16C1118.25 616.014 1119.05 613.124 1120.14 609.49C1121.21 605.86 1123.98 594.37 1125.45 589.94C1127.14 585.071 1129.37 580.408 1132.11 576.04C1136.68 576.04 1141.31 577.787 1146.01 581.28C1151.14 585.16 1155.93 589.476 1160.32 594.18C1165.15 599.287 1169.99 604.93 1174.83 611.11C1179.67 617.29 1184.44 622.934 1189.13 628.04C1193.42 632.771 1198.14 637.09 1203.24 640.94C1207.94 644.434 1212.58 646.18 1217.15 646.18C1221.06 646.302 1224.9 645.093 1228.03 642.75C1230.99 640.467 1233.51 637.673 1235.48 634.5C1237.42 631.436 1238.91 628.109 1239.91 624.62C1240.74 621.944 1241.22 619.171 1241.33 616.37C1237.66 619.007 1233.18 620.267 1228.67 619.93ZM1052.25 598.12C1050.86 600.615 1048.59 602.499 1045.88 603.4C1044.57 602.534 1043.55 601.284 1042.98 599.82C1042.28 598.098 1041.94 596.25 1041.98 594.39C1041.99 590.712 1042.89 587.091 1044.61 583.84C1046.08 580.699 1048.66 578.208 1051.85 576.84C1053.59 580.635 1054.52 584.754 1054.57 588.93C1054.65 592.15 1053.85 595.33 1052.26 598.13L1052.25 598.12ZM1155.32 565.73C1150.94 568.941 1145.64 570.64 1140.21 570.57C1138.86 570.628 1137.52 570.493 1136.21 570.17C1140.57 563.477 1145.28 557.022 1150.32 550.83C1155.15 544.917 1159.52 539.877 1163.41 535.71C1167.3 531.544 1171.94 526.91 1177.32 521.81C1178.65 521.004 1179.46 521.274 1179.74 522.62C1180 523.937 1180.14 525.277 1180.14 526.62C1179.09 531.117 1177.61 535.501 1175.71 539.71C1173.49 544.81 1170.65 549.617 1167.25 554.02C1163.86 558.486 1159.85 562.435 1155.32 565.74V565.73Z" fill="white"/>
<path d="M638.81 504.77C639.922 505.764 641.225 506.519 642.64 506.99C644.911 507.742 647.299 508.081 649.69 507.99C652.11 507.99 654.597 506.377 657.15 503.15C659.84 499.714 662.264 496.076 664.4 492.27C665.844 490.007 667.028 487.588 667.93 485.06L669.93 479.98C670.66 478.153 670.945 476.179 670.76 474.22C670.584 472.755 670.176 471.327 669.55 469.99C668.829 468.445 667.879 467.019 666.73 465.76C665.382 464.342 663.641 463.36 661.73 462.94C659.33 461.811 656.721 461.194 654.07 461.13C651.11 460.997 648.693 460.93 646.82 460.93C645.412 460.891 644.009 461.094 642.67 461.53C641.06 461.93 640.25 462.68 640.25 463.75C640.318 464.538 640.546 465.303 640.92 466C641.28 466.78 641.23 468.39 641.23 470.54C641.23 475.92 640.81 478.54 639.64 485.19C638.43 492.09 636.84 495.82 636.84 500.38C636.868 501.064 637.003 501.738 637.24 502.38C637.573 503.287 638.11 504.104 638.81 504.77Z" fill="white"/>
<path d="M1267.83 476C1265.26 471.7 1262.01 469.193 1258.07 468.48C1257.08 468.29 1256.08 468.17 1255.07 468.12C1251.48 468.181 1247.96 469.071 1244.77 470.72C1241.39 472.337 1238.42 474.696 1236.08 477.62C1233.93 480.179 1232.72 483.405 1232.68 486.75C1232.68 489.517 1233.56 492.212 1235.19 494.45C1232.68 494.81 1231.43 495.81 1231.43 497.45C1231.43 499.243 1232.56 501.183 1234.83 503.27C1237.25 505.45 1240.13 507.072 1243.25 508.02C1246.08 508.969 1249.04 509.452 1252.03 509.45C1257.28 509.45 1261.49 507.867 1264.66 504.7C1267.62 501.867 1269.81 498.32 1271.02 494.4C1271.54 492.787 1271.79 491.096 1271.74 489.4C1271.69 484.659 1270.34 480.024 1267.83 476ZM1249.29 493.55C1249.14 493.775 1248.91 493.942 1248.65 494.023C1248.39 494.105 1248.11 494.097 1247.86 494C1247.59 493.934 1247.34 493.789 1247.15 493.582C1246.96 493.376 1246.83 493.118 1246.79 492.84C1246.95 492.399 1246.96 491.919 1246.84 491.469C1246.71 491.018 1246.44 490.62 1246.07 490.33C1245.12 489.85 1245.24 489.103 1246.43 488.09C1247.4 487.174 1248.67 486.635 1250.01 486.57C1250.25 486.537 1250.5 486.561 1250.73 486.639C1250.96 486.717 1251.18 486.848 1251.35 487.021C1251.52 487.195 1251.65 487.406 1251.73 487.638C1251.81 487.87 1251.83 488.117 1251.8 488.36C1251.79 489.89 1251 491.64 1249.29 493.54V493.55Z" fill="white"/>
<path d="M1265.35 624.84C1265.29 624.26 1263.98 624.39 1263.2 624.54C1260.3 625.09 1255.89 625.54 1245.93 625.54C1245.86 625.82 1245.8 626.08 1245.72 626.38C1244.56 630.412 1242.84 634.26 1240.6 637.81C1238.25 641.581 1235.24 644.906 1231.73 647.63C1227.55 650.781 1222.42 652.426 1217.19 652.3C1211.34 652.3 1205.46 650.14 1199.73 645.88C1194.34 641.806 1189.34 637.24 1184.79 632.24C1182.43 629.67 1180.03 626.96 1177.63 624.11L1170.97 623.92C1136.49 622.92 787.72 615.29 546.97 617.43C553.57 600.49 572.76 550.74 576.52 541.02C580.76 530.046 582.883 522.54 582.89 518.5C582.89 515.96 581.337 513.073 578.23 509.84C575.025 506.535 571.377 503.691 567.39 501.39C563.27 498.97 559.82 497.78 557.03 497.78C554.63 497.78 553.22 498.78 552.85 500.78C551.798 505.807 550.432 510.763 548.76 515.62C546.927 521.066 543.857 529.49 539.55 540.89L531.74 561.8C530.86 564.086 528.677 567.953 525.19 573.4C521.703 578.846 517.997 584.1 514.07 589.16C510.143 594.233 506.913 597.656 504.38 599.43C504.753 598.043 508.047 589.68 514.26 574.34C518.32 564.34 522.28 554.363 526.14 544.41C530 534.456 532 528.596 532.14 526.83C532.276 525.886 532.34 524.933 532.33 523.98C532.353 522.714 532.126 521.457 531.66 520.28C531.068 518.985 530.267 517.795 529.29 516.76C527.397 514.986 523.277 512.166 516.93 508.3C510.6 504.45 506.03 502.3 503.24 501.94C502.817 501.848 502.377 501.896 501.983 502.077C501.59 502.257 501.266 502.56 501.06 502.94C500.596 503.849 500.369 504.86 500.4 505.88V506.64C500.4 510.953 499.037 517.003 496.31 524.79C493.583 532.576 489.56 543.146 484.24 556.5C480.447 565.753 477.567 573.006 475.6 578.26C473.936 582.475 472.631 586.824 471.7 591.26C471.447 592.406 473.253 594.74 477.12 598.26C481.107 601.908 485.362 605.25 489.85 608.26C494.48 611.36 497.73 612.92 499.64 612.92C501.907 612.92 505.07 611.02 509.13 607.22C513.559 603.001 517.629 598.422 521.3 593.53C519.407 598.47 516.81 604.396 513.51 611.31C512.26 613.94 511.18 616.09 510.26 617.82C488.26 618.12 422.01 618.52 403.33 619.03C386.67 619.48 369.79 628.48 369.79 640.42C369.79 656.18 434.87 687.92 464.04 687.92C502.85 687.92 528.19 658.99 539.04 637.11C932.04 638.11 1217.19 678.11 1229.52 679.11C1241.85 680.11 1259.45 674.9 1264.6 650.63C1266.18 643.14 1265.71 628.55 1265.35 624.84ZM460.35 664.32C440.01 664.32 425.48 657.59 406.82 649.11C395.36 643.89 390.12 637.63 408.82 637.51C435.12 637.32 487.38 637.2 503.57 637.14C495 652.07 478.68 664.33 460.3 664.33L460.35 664.32Z" fill="white"/>
<path d="M1286.29 528.18C1285.81 528.3 1284.81 528.45 1283.29 528.63C1282.72 528.624 1282.16 528.741 1281.64 528.972C1281.13 529.204 1280.66 529.544 1280.29 529.97C1275.28 537.617 1266.28 550.363 1253.29 568.21C1240.3 586.057 1233.8 593.967 1233.77 591.94C1233.77 590.267 1237.77 578.027 1245.77 555.22C1252.44 535.64 1255.77 525.307 1255.77 524.22C1255.65 520.28 1253.14 517.027 1248.25 514.46C1243.36 511.893 1236.75 510.073 1228.43 509C1227.36 509.84 1224.46 516.647 1219.74 529.42C1215.02 542.193 1210.3 555.627 1205.59 569.72C1200.87 583.813 1198.51 591.277 1198.52 592.11C1198.52 594.377 1200.07 597.123 1203.18 600.35C1206.42 603.679 1210.12 606.515 1214.18 608.77C1218.41 611.157 1222.08 612.35 1225.18 612.35C1226.63 612.411 1228.06 612.039 1229.3 611.28C1231.09 610.087 1240.76 597.22 1258.3 572.68C1275.84 548.14 1285.21 534.617 1286.42 532.11C1286.63 531.535 1286.75 530.932 1286.78 530.32C1286.79 529.578 1286.62 528.845 1286.29 528.18Z" fill="white"/>
<path d="M58.2199 627.41C51.0199 627.62 40.8699 632.41 34.7399 635.96C33.9799 636.4 33.3099 638.04 34.1899 638.04C82.3499 638.27 276.25 634.5 362.92 635.96C364.87 628.6 371.51 622.77 379.92 619.07C282.33 620.47 113.09 625.78 58.2199 627.41Z" fill="white"/>
<path d="M472.08 506.41C468.08 510.41 462.75 512.47 456.29 512.47C452.826 512.47 449.385 511.909 446.1 510.81C442.392 509.659 438.98 507.714 436.1 505.11C435.526 504.581 434.982 504.02 434.47 503.43C424.644 503.736 416.107 504.026 408.86 504.3C406.467 504.42 404.227 506.033 402.14 509.14C399.923 512.519 398.206 516.2 397.04 520.07C395.854 523.475 395.18 527.037 395.04 530.64C394.98 531.743 395.165 532.846 395.58 533.87C396.3 535.063 401.734 535.66 411.88 535.66C420.834 535.66 433.61 535.183 450.21 534.23L457.21 533.87C454.21 538.53 444.41 543.75 432.02 551.97C420.32 559.73 400.96 570.05 386.75 579.37L381 583.1C379.567 584.053 378.79 584.92 378.67 585.7C378.55 586.48 378.37 586.926 378.13 587.04L373.47 588.11C371.257 588.449 369.092 589.05 367.02 589.9C366.418 590.225 365.927 590.722 365.608 591.328C365.289 591.933 365.158 592.619 365.23 593.3C365.259 594.643 365.502 595.973 365.95 597.24C367.32 602.081 369.055 606.811 371.14 611.39C372.814 614.85 375.147 616.88 378.14 617.48C379.707 617.531 381.273 617.38 382.8 617.03C385.187 616.61 388.65 615.893 393.19 614.88C397.73 613.867 400.73 613.18 402.19 612.82C427.62 606.73 463.19 605.09 463.19 616.47C463.19 617.67 467.78 614.01 469.57 611.02C471.437 607.751 472.368 604.032 472.26 600.27C472.276 599.267 472.215 598.264 472.08 597.27C471.24 589.75 467 584.526 459.36 581.6C451.72 578.673 442.467 577.21 431.6 577.21C423.42 577.269 415.252 577.867 407.15 579C409.78 575.9 425.32 566.95 441.58 556.71C458.41 546.1 475.21 537.25 488 529C489.907 527.667 491.667 524.667 493.28 520C494.761 516.041 495.579 511.865 495.7 507.64C495.7 504.06 494.864 502.21 493.19 502.09C491.94 501.93 486.07 501.96 475.62 502.2C474.56 503.699 473.376 505.108 472.08 506.41Z" fill="white"/>
<path d="M1103.17 455.85C1101.08 453.643 1097.59 452.36 1092.69 452C1081.36 451.047 1068.19 461.437 1053.19 483.17C1038.36 504.632 1025.22 527.209 1013.87 550.7C1002.64 573.987 994.524 591.72 989.51 603.9C990.584 599.84 991.917 595.243 993.51 590.11C995.104 584.977 996.687 579.783 998.26 574.53C1007.59 543.603 1012.91 525.393 1014.2 519.9C1014.56 518.227 1012.8 515.987 1008.92 513.18C1004.71 510.194 1000.18 507.701 995.401 505.75C990.267 503.603 986.267 502.53 983.401 502.53C981.847 502.53 980.891 503.007 980.531 503.96C979.898 505.94 979.387 507.958 979 510C978.4 512.147 976.46 518.983 973.18 530.51C969.9 542.037 967.004 550.903 964.49 557.11C962.224 562.243 958.164 569.617 952.31 579.23C946.457 588.843 942.517 594.603 940.49 596.51C943.95 586.717 948.07 573.313 952.85 556.3C957.63 539.287 959.72 528.75 959.12 524.69C959 523.257 956.971 521.347 953.031 518.96C948.792 516.428 944.326 514.299 939.69 512.6C934.737 510.747 930.827 509.82 927.961 509.82C925.574 509.82 924.26 510.537 924.021 511.97C924.021 513.303 921.514 524.527 916.5 545.64C916.1 547.433 915.027 552.127 913.281 559.72C912.041 561.72 910.731 563.66 909.281 565.72C901.975 576.5 893.754 586.63 884.711 596C876.504 604.36 871.597 607.54 869.99 605.54C869.426 604.581 869.181 603.467 869.29 602.36C869.422 599.188 869.943 596.045 870.841 593C871.78 589.392 872.932 585.842 874.29 582.37C875.56 579.21 876.291 577.73 876.531 577.95C877.69 578.805 879.09 579.271 880.531 579.28C884.784 579.28 889.75 576.05 895.43 569.59C901.338 562.753 906.302 555.156 910.19 547C914.384 538.42 916.477 531.51 916.47 526.27C916.493 525.54 916.439 524.809 916.31 524.09C915.98 522.646 915.265 521.319 914.24 520.25C913.866 519.843 913.414 519.514 912.911 519.284C912.408 519.054 911.864 518.927 911.31 518.91C910.639 518.87 909.972 519.049 909.41 519.42C909.87 518.18 908.23 516.3 904.5 513.73C900.474 510.991 896.214 508.612 891.771 506.62C887.01 504.44 883.41 503.35 881.01 503.35C876.297 503.35 870.297 508.147 863.01 517.74C855.733 527.48 849.622 538.039 844.8 549.2C840.547 555.2 835.51 562.177 829.69 570.13C816.357 588.43 809.691 596.54 809.691 594.46C809.691 592.747 813.79 580.2 821.99 556.82C828.844 536.76 832.271 526.177 832.271 525.07C832.141 521.07 829.57 517.7 824.55 515.07C819.53 512.44 812.74 510.58 804.18 509.47C803.074 510.323 800.104 517.3 795.271 530.4L794.11 533.61C793.848 533.675 793.593 533.769 793.35 533.89C790.784 535.223 786.47 540.303 780.41 549.13C774.35 557.957 767.881 568.19 761.001 579.83C763.701 572.497 770.247 555.3 780.641 528.24C781.003 527.302 781.189 526.305 781.191 525.3C781.191 522.24 779.61 519.3 776.41 516.48C772.972 513.512 769.07 511.127 764.86 509.42C760.873 507.681 756.674 506.477 752.37 505.84C749.924 505.467 745.764 508.437 739.891 514.75C734.168 520.856 728.771 527.258 723.72 533.93C727.767 523.763 729.604 517.827 729.23 516.12C728.99 515.02 727.231 513.4 723.831 511.25C720.255 508.996 716.471 507.09 712.531 505.56C708.364 503.9 705.001 503.073 702.441 503.08C700.23 503.08 698.951 503.75 698.571 505.08C697.237 509.747 692.067 524.747 683.061 550.08C674.461 574.307 669.077 589.013 666.91 594.2C665.69 587.53 661.57 582.81 654.48 580.09C646.84 577.163 637.587 575.7 626.72 575.7C618.57 575.762 610.432 576.36 602.36 577.49C604.97 574.39 621.63 565.27 637.66 554.94C653.69 544.61 671.9 535.76 684.66 527.52C686.56 526.21 688.331 523.22 689.941 518.52C691.421 514.561 692.239 510.385 692.36 506.16C692.36 502.58 691.524 500.73 689.85 500.61C688.31 500.4 679.74 500.51 664.22 500.91C663.04 502.66 661.831 504.33 660.591 505.91C657.161 510.25 653.471 512.45 649.591 512.45C646.649 512.551 643.713 512.111 640.93 511.15C638.926 510.461 637.089 509.357 635.54 507.91C634.325 506.748 633.401 505.316 632.841 503.73C632.641 503.124 632.48 502.506 632.36 501.88C621.987 502.193 613.017 502.497 605.451 502.79C603.051 502.91 600.81 504.523 598.73 507.63C596.513 511.009 594.796 514.69 593.631 518.56C592.438 521.963 591.764 525.526 591.631 529.13C591.571 530.23 591.756 531.33 592.17 532.35C592.884 533.543 598.317 534.14 608.47 534.14C617.424 534.14 630.2 533.663 646.8 532.71L653.8 532.35C650.8 537.01 639.8 542.65 627.99 550.19C616.18 557.73 596.181 568.54 582.001 577.86L576.271 581.62C574.841 582.62 574.051 583.44 573.941 584.22C573.831 585 573.641 585.44 573.401 585.56L568.74 586.63C566.527 586.967 564.361 587.568 562.29 588.42C561.688 588.744 561.195 589.241 560.877 589.847C560.558 590.453 560.427 591.14 560.501 591.82C560.528 593.163 560.771 594.494 561.22 595.76C562.59 600.601 564.325 605.331 566.41 609.91C568.08 613.37 570.41 615.39 573.41 616C574.976 616.044 576.542 615.893 578.071 615.55C580.461 615.12 583.911 614.4 588.461 613.4C593.011 612.4 595.981 611.7 597.461 611.34C622.891 605.25 657.17 605.44 657.17 614.85C657.17 616.85 662.991 613.03 664.781 610.04C666.282 607.34 667.17 604.342 667.381 601.26C668.402 602.9 669.713 604.34 671.251 605.51C674.779 608.291 678.672 610.576 682.821 612.3C687.167 614.133 690.501 615.053 692.821 615.06C694.041 615.06 694.721 614.81 694.821 614.31C699.594 601.217 706.451 585.46 715.391 567.04C724.331 548.62 734.484 532.983 745.85 520.13C742.177 528.337 737.131 541.983 730.711 561.07C724.291 580.157 721.054 591.43 721.001 594.89C721.001 597.34 723.001 600.17 726.87 603.43C730.889 606.729 735.247 609.592 739.87 611.97C744.57 614.403 747.477 615.503 748.591 615.27H748.951C755.103 601.476 762.221 588.133 770.251 575.34C776.191 566.113 782.401 557.113 788.881 548.34C786.214 555.953 783.52 563.773 780.8 571.8C775.967 586.233 773.554 593.88 773.561 594.74C773.561 597.067 775.147 599.883 778.321 603.19C781.648 606.601 785.454 609.508 789.62 611.82C793.967 614.267 797.727 615.49 800.901 615.49C802.386 615.557 803.857 615.173 805.12 614.39C806.954 613.163 816.87 599.977 834.87 574.83L837.141 571.65C836.153 575.82 835.626 580.085 835.57 584.37C835.57 588.71 836.21 592.18 837.47 594.74C838.73 597.3 841.471 600.02 845.651 603.26C849.973 606.561 854.673 609.337 859.651 611.53C864.757 613.817 869.204 614.96 872.99 614.96C874.154 614.975 875.312 614.803 876.42 614.45C878.6 613.783 883.971 608.543 892.531 598.73C898.104 592.243 903.594 585.357 909 578.07C906.421 589.577 905.127 596.213 905.12 597.98C905.12 600.367 907.06 602.993 910.94 605.86C914.864 608.737 919.118 611.134 923.61 613C928.15 614.9 930.77 615.63 931.49 615.15C932.056 614.631 932.744 614.263 933.49 614.08C934.271 614.161 934.99 614.545 935.49 615.15C935.797 615.451 936.162 615.686 936.562 615.841C936.963 615.996 937.391 616.067 937.82 616.05C938.185 616.074 938.551 616.022 938.896 615.898C939.24 615.775 939.555 615.581 939.82 615.33L945.01 606.2C953.491 591.633 958.327 583.573 959.521 582.02L959.341 586.14C959.101 588.527 958.98 590.317 958.98 591.51C958.98 597.51 960.831 602.287 964.531 605.84C966.902 607.973 969.481 609.863 972.23 611.48C974.979 613.324 977.924 614.856 981.01 616.05C981.54 616.2 982.078 616.32 982.62 616.41C983.081 616.412 983.537 616.321 983.961 616.14C984.384 615.959 984.84 615.868 985.3 615.87C986.134 615.87 987.134 616.467 988.3 617.66C988.803 618.068 989.446 618.262 990.091 618.2C990.83 618.195 991.561 618.042 992.24 617.75C992.841 617.548 993.348 617.136 993.67 616.59C1004.49 593.446 1016.62 570.936 1030 549.17C1043.85 526.543 1056.99 507.917 1069.41 493.29C1081.83 478.663 1091.32 471.35 1097.89 471.35C1098.75 471.315 1099.6 471.456 1100.41 471.764C1101.21 472.072 1101.94 472.54 1102.55 473.14C1102.79 473.38 1103.24 473.047 1103.89 472.14C1104.65 471.018 1105.23 469.778 1105.59 468.47C1106.07 466.902 1106.31 465.27 1106.31 463.63C1106.33 460.724 1105.2 457.927 1103.17 455.85ZM885.831 556.15C889.624 549.403 893.624 542.967 897.831 536.84C902.037 530.713 904.854 527.207 906.281 526.32C906.507 529.653 905.044 534.693 901.891 541.44C898.769 548.119 894.958 554.453 890.521 560.34C886.1 566.193 882.284 569.787 879.07 571.12C879.784 567.887 882.037 562.897 885.831 556.15Z" fill="white"/>
<path d="M455.44 449.23C454.06 446.828 452.342 444.635 450.34 442.72C448.779 441.183 447.004 439.879 445.07 438.85C443.43 438.03 442.49 437.85 442.26 438.33C440.38 442.11 436.627 445.98 431 449.94C425.281 453.99 419.356 457.741 413.25 461.18C407.044 464.7 401.42 467.7 396.38 470.18C391.38 472.63 388.48 473.99 387.77 474.18C386.174 468.416 383.873 462.871 380.92 457.67C378.105 452.654 374.552 448.09 370.38 444.13C366.339 440.316 361.714 437.173 356.68 434.82C351.68 432.49 343.32 431.31 337.68 431.31C336.156 431.167 334.62 431.19 333.1 431.38C333.03 432.07 332.97 432.76 332.89 433.44L332.25 438.69H332.1C329.067 456.172 321.381 472.514 309.85 486C297.76 500.58 280.71 515.13 261.65 527.15L258.79 529C257.03 530.073 255.27 531.117 253.51 532.13C252.073 539.209 251.373 546.417 251.42 553.64C251.461 561.05 252.347 568.431 254.06 575.64C255.757 583.124 258.855 590.219 263.19 596.55C267.663 603.009 273.558 608.356 280.42 612.18C287.554 616.287 296.514 618.337 307.3 618.33C321.587 618.33 334.007 614.41 344.56 606.57C355.133 598.694 364.081 588.847 370.91 577.57C377.938 566.098 383.266 553.669 386.73 540.67C390.244 527.503 392 515.767 392 505.46C392 503.58 391.94 501.89 391.82 500.36C391.7 498.83 391.66 497.36 391.66 495.97C399.54 495.256 407.315 493.663 414.84 491.22C420.639 489.325 426.282 486.984 431.72 484.22C433.914 483.073 435.914 481.94 437.72 480.82C439.539 479.725 441.289 478.519 442.96 477.21C445.767 474.983 447.99 473.283 449.63 472.11C451.373 470.69 452.938 469.065 454.29 467.27C456.3 464.747 457.487 461.669 457.693 458.451C457.898 455.232 457.112 452.028 455.44 449.27V449.23ZM336 459.07H340C342.189 459.015 344.363 459.443 346.367 460.323C348.372 461.203 350.159 462.513 351.6 464.16C354.798 467.859 357.083 472.257 358.27 477C354.143 477.138 350.028 476.479 346.15 475.06C343.369 474.011 340.804 472.462 338.58 470.49C336.924 469.004 335.566 467.215 334.58 465.22C333.857 463.863 333.434 462.365 333.34 460.83C333.55 459.65 334.41 459.07 336 459.07ZM360.24 548.51C358.103 558.442 354.599 568.03 349.83 577C345.404 585.46 339.375 592.98 332.08 599.14C324.934 605.14 316.32 608.14 306.24 608.14C300.757 608.309 295.338 606.922 290.61 604.14C286.297 601.465 282.632 597.865 279.88 593.6C277.053 589.228 274.975 584.415 273.73 579.36C272.472 574.421 271.824 569.347 271.8 564.25C271.8 552.997 273.444 543.51 276.73 535.79C279.493 528.885 283.349 522.47 288.15 516.79C291.814 512.468 296.069 508.684 300.79 505.55C304.89 502.97 307.79 501.22 309.4 500.28C315.254 496.993 318.827 493.95 320.12 491.15C321.238 488.974 321.898 486.591 322.06 484.15C322.094 482.85 321.973 481.551 321.7 480.28C324.08 483.073 327.011 485.344 330.31 486.95C333.926 488.827 337.684 490.415 341.55 491.7C345.417 492.987 349.167 494.04 352.8 494.86C355.748 495.59 358.765 495.999 361.8 496.08C362.28 498.66 362.68 502.08 363.04 506.27C363.4 510.46 363.56 515.27 363.56 520.67C363.428 530.043 362.299 539.376 360.19 548.51H360.24Z" fill="white"/>
<path d="M197.57 314.61C151.78 314.61 109.22 328.34 73.95 355.54C48.08 375.48 26.81 400.26 8.20998 426.11C4.20998 432.04 -2.79002 442.28 1.20998 448.74C5.20998 454.93 14.42 453.86 19.79 451.44C27.88 447.13 32.73 435.54 35.96 427.18C39.74 417.18 48.62 395.18 62.1 380.86C88.49 352.31 132.93 331.56 170.38 329.95C216.7 327.26 287.54 360.95 287.81 414.25C287.81 428.8 284.32 444.69 272.73 462.46C258.17 485.1 235.54 505 211.3 518C194.61 526.88 174.13 530.66 157.16 528C158.79 521.81 161.47 515.61 164.16 508.88C171.97 488.42 183.28 460.94 191.62 436.43C196.74 422.43 204.55 403.85 205.62 389.02C206.44 373.12 195.13 367.2 184.08 371.51C160.4 379 133.46 404.31 119.46 424C108.14 440.4 100.6 458.71 99.8 475.4C98.19 495.61 106.8 512.85 119.46 525.78C117.04 534.12 114.88 541.68 113.27 549.21C107.08 576.14 106.54 607.93 131.58 620.32C135.09 621.93 138.31 623.54 141.01 624.08V612C139.11 605 139.11 595.58 140.47 583.73C140.74 581.3 140.74 579.15 141.01 576.73C142.89 567.04 146.13 557.34 150.43 545.49C152.86 546.3 155.55 547.39 157.98 547.92C188.44 554.92 224.93 542.71 255.67 523.92C275.75 511.65 293.39 496.57 305.3 482.22C317.298 468.243 324.854 451.005 327 432.71C327.498 428.556 327.722 424.373 327.67 420.19C325.5 350.17 261.41 314.61 197.57 314.61ZM124 510.69C123.336 509.75 122.615 508.851 121.84 508C104.35 483.22 118.35 450.89 133.15 428C138.81 420.18 147.97 405.64 163.59 393.79C161.98 397.57 160.9 401.87 159.29 405.64C146.94 440.94 134.28 475.13 124 510.69Z" fill="white"/>
<path d="M472.14 474.49C469.573 470.19 466.32 467.683 462.38 466.97C461.39 466.78 460.387 466.659 459.38 466.61C457.694 466.62 456.015 466.831 454.38 467.24C452.567 467.729 450.808 468.399 449.13 469.24C445.751 470.857 442.78 473.215 440.44 476.14C439.302 477.542 438.413 479.128 437.81 480.83C437.306 482.259 437.048 483.764 437.05 485.28C437.055 488.047 437.933 490.742 439.56 492.98C437.053 493.34 435.8 494.34 435.8 495.98C435.8 497.773 436.933 499.713 439.2 501.8C441.625 503.98 444.499 505.602 447.62 506.55C450.45 507.498 453.415 507.981 456.4 507.98C461.653 507.98 465.863 506.397 469.03 503.23C471.995 500.396 474.185 496.85 475.39 492.93C475.913 491.316 476.157 489.625 476.11 487.93C476.05 483.17 474.676 478.518 472.14 474.49ZM453.6 492C453.447 492.225 453.222 492.391 452.963 492.473C452.703 492.555 452.424 492.547 452.17 492.45C451.897 492.384 451.649 492.239 451.459 492.032C451.268 491.826 451.143 491.567 451.1 491.29C451.259 490.849 451.275 490.369 451.146 489.918C451.016 489.468 450.748 489.069 450.38 488.78C449.426 488.3 449.546 487.553 450.74 486.54C451.715 485.624 452.984 485.085 454.32 485.02C454.563 484.987 454.81 485.01 455.042 485.089C455.274 485.167 455.485 485.298 455.659 485.471C455.832 485.644 455.963 485.855 456.041 486.088C456.119 486.32 456.143 486.567 456.11 486.81C456.11 488.4 455.27 490.15 453.6 492Z" fill="white"/>
<path d="M528.077 759.044C530.549 761.086 534.096 762.645 537.804 762.645C543.984 762.645 547.369 759.098 547.369 754.853C547.369 749.908 543.178 748.35 539.416 746.953C536.46 745.824 533.612 744.857 533.612 742.439C533.612 740.45 535.117 738.677 538.395 738.677C540.706 738.677 542.587 739.644 544.36 740.988L546.456 738.193C544.468 736.581 541.619 735.237 538.341 735.237C532.698 735.237 529.367 738.462 529.367 742.654C529.367 747.06 533.451 748.834 537.159 750.177C540.007 751.252 543.124 752.434 543.124 755.121C543.124 757.378 541.404 759.206 537.965 759.206C534.848 759.206 532.537 757.916 530.28 756.089L528.077 759.044ZM555.75 730.508C557.47 730.508 558.813 729.326 558.813 727.66C558.813 725.94 557.47 724.812 555.75 724.812C554.03 724.812 552.687 725.94 552.687 727.66C552.687 729.326 554.03 730.508 555.75 730.508ZM553.493 762H557.9V735.882H553.493V762ZM566.718 762H571.125V743.084C573.758 740.45 575.585 739.053 578.272 739.053C581.711 739.053 583.216 741.149 583.216 746.039V762H587.623V745.448C587.623 738.784 585.151 735.237 579.669 735.237C576.069 735.237 573.382 737.172 570.91 739.644H570.748L570.372 735.882H566.718V762ZM594.172 748.995C594.172 757.647 599.493 762.645 606.425 762.645C609.542 762.645 612.551 761.355 614.916 759.259L612.928 756.357C611.369 757.755 609.273 758.991 606.801 758.991C602.018 758.991 598.74 754.96 598.74 748.995C598.74 742.976 602.18 738.892 606.909 738.892C609.005 738.892 610.617 739.859 612.175 741.203L614.379 738.354C612.605 736.688 610.187 735.237 606.748 735.237C600.03 735.237 594.172 740.235 594.172 748.995ZM617.526 748.995C617.526 757.54 623.061 762.645 630.048 762.645C633.594 762.645 636.389 761.409 638.646 759.958L637.088 757.056C635.153 758.292 633.057 759.098 630.585 759.098C625.587 759.098 622.202 755.551 621.879 749.908H639.506C639.613 749.264 639.667 748.404 639.667 747.49C639.667 740.02 635.905 735.237 629.242 735.237C623.276 735.237 617.526 740.45 617.526 748.995ZM621.825 747.007C622.363 741.74 625.695 738.731 629.349 738.731C633.433 738.731 635.798 741.686 635.798 747.007H621.825ZM654.727 762H676.868V758.184H666.926C665.153 758.184 663.057 758.346 661.176 758.507C669.291 750.016 675.148 743.621 675.148 737.172C675.148 731.099 671.225 727.069 664.884 727.069C660.424 727.069 657.361 729.165 654.512 732.282L657.038 734.808C659.026 732.497 661.499 730.67 664.347 730.67C668.7 730.67 670.849 733.464 670.849 737.387C670.849 742.922 665.045 749.102 654.727 759.367V762ZM692.671 762.645C699.496 762.645 703.634 756.25 703.634 744.749C703.634 733.249 699.496 727.069 692.671 727.069C685.793 727.069 681.655 733.249 681.655 744.749C681.655 756.25 685.793 762.645 692.671 762.645ZM692.671 759.098C688.641 759.098 685.954 754.799 685.954 744.749C685.954 734.7 688.641 730.616 692.671 730.616C696.648 730.616 699.335 734.7 699.335 744.749C699.335 754.799 696.648 759.098 692.671 759.098ZM710.248 762H729.595V758.346H722.501V727.714H719.115C717.234 728.842 714.977 729.702 711.86 730.24V733.088H718.094V758.346H710.248V762ZM742.227 762H746.795C747.386 748.619 749.052 740.826 757.167 730.455V727.714H735.08V731.529H752.169C745.398 740.934 742.818 749.102 742.227 762Z" fill="#EFEFEF"/>
<path d="M493.982 767.374H792.01V770.061H493.982V767.374Z" fill="#EFEFEF"/>
<path d="M447.846 272.52H453.99L458.342 255.88C459.174 252.936 459.814 249.992 460.518 246.856H460.774C461.542 249.992 462.118 252.872 462.886 255.816L467.366 272.52H473.766L482.086 241.416H477.094L472.55 259.4C471.91 262.344 471.334 265.16 470.63 268.04H470.374C469.67 265.16 468.966 262.344 468.198 259.4L463.334 241.416H458.214L453.414 259.4C452.646 262.28 452.006 265.16 451.302 268.04H451.046C450.47 265.16 449.894 262.344 449.19 259.4L444.582 241.416H439.206L447.846 272.52ZM486.301 257.032C486.301 267.208 492.893 273.288 501.213 273.288C505.437 273.288 508.765 271.816 511.453 270.088L509.597 266.632C507.293 268.104 504.797 269.064 501.853 269.064C495.901 269.064 491.869 264.84 491.485 258.12H512.477C512.605 257.352 512.669 256.328 512.669 255.24C512.669 246.344 508.189 240.648 500.253 240.648C493.149 240.648 486.301 246.856 486.301 257.032ZM491.421 254.664C492.061 248.392 496.029 244.808 500.381 244.808C505.245 244.808 508.061 248.328 508.061 254.664H491.421ZM520.355 272.52H524.579L525.027 269.448H525.219C527.971 271.88 531.235 273.288 534.115 273.288C541.219 273.288 547.555 267.08 547.555 256.456C547.555 246.856 543.267 240.648 535.203 240.648C531.747 240.648 528.291 242.504 525.475 245L525.603 239.368V226.952H520.355V272.52ZM525.603 265.608V249.288C528.547 246.536 531.299 245.064 533.923 245.064C539.811 245.064 542.115 249.672 542.115 256.52C542.115 264.2 538.339 268.872 533.219 268.872C531.171 268.872 528.355 267.976 525.603 265.608ZM566.553 257.032C566.553 267.4 571.609 273.288 579.417 273.288C583.065 273.288 586.393 271.24 588.825 268.872H589.017L589.465 272.52H593.817V226.952H588.505V238.92L588.761 244.232C586.009 241.992 583.641 240.648 580.057 240.648C572.953 240.648 566.553 246.92 566.553 257.032ZM571.993 256.968C571.993 249.864 575.961 245.064 580.953 245.064C583.513 245.064 585.881 245.96 588.505 248.328V264.584C585.945 267.464 583.449 268.872 580.569 268.872C575.129 268.872 571.993 264.392 571.993 256.968ZM601.989 257.032C601.989 267.208 608.581 273.288 616.901 273.288C621.125 273.288 624.453 271.816 627.141 270.088L625.285 266.632C622.981 268.104 620.485 269.064 617.541 269.064C611.589 269.064 607.557 264.84 607.173 258.12H628.165C628.293 257.352 628.357 256.328 628.357 255.24C628.357 246.344 623.877 240.648 615.941 240.648C608.837 240.648 601.989 246.856 601.989 257.032ZM607.109 254.664C607.749 248.392 611.717 244.808 616.069 244.808C620.933 244.808 623.749 248.328 623.749 254.664H607.109ZM643.075 272.52H649.219L660.227 241.416H655.043L649.155 259.08C648.259 262.152 647.235 265.288 646.339 268.232H646.083C645.123 265.288 644.099 262.152 643.203 259.08L637.315 241.416H631.875L643.075 272.52ZM663.676 257.032C663.676 267.208 670.268 273.288 678.588 273.288C682.812 273.288 686.14 271.816 688.828 270.088L686.972 266.632C684.668 268.104 682.172 269.064 679.228 269.064C673.276 269.064 669.244 264.84 668.86 258.12H689.852C689.98 257.352 690.044 256.328 690.044 255.24C690.044 246.344 685.564 240.648 677.628 240.648C670.524 240.648 663.676 246.856 663.676 257.032ZM668.796 254.664C669.436 248.392 673.404 244.808 677.756 244.808C682.62 244.808 685.436 248.328 685.436 254.664H668.796ZM697.73 266.248C697.73 270.792 699.33 273.288 703.298 273.288C704.706 273.288 705.602 273.096 706.306 272.776L705.602 268.808C705.026 268.936 704.77 268.936 704.45 268.936C703.682 268.936 702.978 268.296 702.978 266.632V226.952H697.73V266.248ZM711.739 257.032C711.739 267.336 718.523 273.288 726.139 273.288C733.755 273.288 740.539 267.336 740.539 257.032C740.539 246.6 733.755 240.648 726.139 240.648C718.523 240.648 711.739 246.6 711.739 257.032ZM717.179 257.032C717.179 249.864 720.827 245 726.139 245C731.515 245 735.099 249.864 735.099 257.032C735.099 264.136 731.515 268.936 726.139 268.936C720.827 268.936 717.179 264.136 717.179 257.032ZM753.85 269.704C756.73 271.944 759.61 273.288 762.49 273.288C769.594 273.288 775.93 267.08 775.93 256.52C775.93 246.856 771.642 240.648 763.642 240.648C759.994 240.648 756.538 242.632 753.722 245H753.53L753.082 241.416H748.73V285.64H753.978V275.144L753.85 269.704ZM753.978 265.608V249.288C757.05 246.536 759.674 245.064 762.298 245.064C768.186 245.064 770.49 249.672 770.49 256.52C770.49 264.2 766.714 268.872 761.594 268.872C759.546 268.872 756.794 267.976 753.978 265.608ZM781.926 257.032C781.926 267.208 788.518 273.288 796.838 273.288C801.062 273.288 804.39 271.816 807.078 270.088L805.222 266.632C802.918 268.104 800.422 269.064 797.478 269.064C791.526 269.064 787.494 264.84 787.11 258.12H808.102C808.23 257.352 808.294 256.328 808.294 255.24C808.294 246.344 803.814 240.648 795.878 240.648C788.774 240.648 781.926 246.856 781.926 257.032ZM787.046 254.664C787.686 248.392 791.654 244.808 796.006 244.808C800.87 244.808 803.686 248.328 803.686 254.664H787.046ZM815.98 272.52H821.228V252.552C823.34 247.304 826.476 245.384 829.1 245.384C830.38 245.384 831.084 245.576 832.108 245.896L833.132 241.288C832.108 240.84 831.148 240.648 829.804 240.648C826.284 240.648 823.084 243.144 820.972 247.048H820.78L820.332 241.416H815.98V272.52Z" fill="#EFEFEF"/>
<path d="M754.23 278.65H349.02V280.65H754.23V278.65Z" fill="#EFEFEF"/>
<path d="M937.81 278.65H773.62V280.65H937.81V278.65Z" fill="#EFEFEF"/>
</svg>
