<svg width="100%" height="100%" viewBox="0 0 328 310" fill="none" xmlns="http://www.w3.org/2000/svg" aria-labelledby="theLogoSimpleID" role="img">
<title id="theLogoSimpleID">The Simple Logo</title>
<path d="M197.57 0C151.77 0 109.22 13.73 73.95 40.93C48.08 60.87 26.81 85.65 8.20998 111.5C4.20998 117.43 -2.79002 127.67 1.20998 134.13C5.20998 140.32 14.42 139.25 19.79 136.83C27.88 132.52 32.73 120.93 35.96 112.57C39.74 102.57 48.62 80.57 62.1 66.25C88.48 37.7 132.92 17 170.37 15.34C216.69 12.65 287.53 46.34 287.8 99.64C287.8 114.19 284.31 130.08 272.72 147.85C258.17 170.48 235.54 190.41 211.3 203.35C194.61 212.23 174.13 216.01 157.16 213.35C158.79 207.16 161.47 200.96 164.16 194.23C171.97 173.77 183.28 146.29 191.62 121.78C196.74 107.78 204.55 89.2 205.62 74.37C206.44 58.47 195.13 52.55 184.08 56.86C160.38 64.4 133.43 89.73 119.43 109.39C108.12 125.82 100.58 144.14 99.77 160.83C98.16 181.04 106.77 198.28 119.43 211.21C117.01 219.55 114.85 227.11 113.24 234.64C107.05 261.57 106.51 293.36 131.55 305.75C135.06 307.36 138.28 308.97 140.98 309.51V297.35C139.08 290.35 139.08 280.93 140.44 269.08C140.71 266.65 140.71 264.5 140.98 262.08C142.86 252.39 146.1 242.69 150.4 230.84C152.83 231.65 155.52 232.74 157.95 233.27C188.41 240.27 224.9 228.06 255.64 209.27C275.72 197 293.36 181.92 305.27 167.57C317.272 153.608 324.837 136.384 327 118.1C327.498 113.946 327.722 109.764 327.67 105.58C325.5 35.55 261.41 0 197.57 0ZM124 196.07C123.336 195.13 122.615 194.231 121.84 193.38C104.35 168.6 118.35 136.27 133.15 113.38C138.85 105.57 148 91 163.62 79.18C162 83 160.94 87.26 159.33 91C146.94 126.32 134.28 160.52 124 196.07Z" fill="#3E3E3E"/>
</svg>
