<svg width="100%" height="100%" viewBox="0 0 485.8 328.51" fill="none" xmlns="http://www.w3.org/2000/svg" aria-labelledby="theLogoID" role="img">
<title id="theLogoID">The Logo</title>
  <g data-name="Layer 2">
    <g data-name="Layer 1" fill="#3e3e3e">
      <path d="M246.7 266.41c11.41 6.65 14.57 22.5 6.37 36.43-7.6 13.63-23.13 20-34.22 13.63-10.84-6.33-14-22.47-6.06-36.43 7.61-13.63 23.14-20.04 33.91-13.63zM483.38 142.88A31.23 31.23 0 00478 136a24 24 0 00-5.6-4.1c-1.74-.87-2.74-1.07-3-.56q-3 6-11.94 12.32a218.23 218.23 0 01-18.84 11.93q-9.89 5.59-17.9 9.55c-5.31 2.6-8.39 4-9.14 4.24a77.82 77.82 0 00-7.27-17.52 61 61 0 00-11.19-14.37 55.37 55.37 0 00-14.54-9.88c-5.31-2.47-14.18-3.73-20.17-3.73a22.56 22.56 0 00-4.86.08c-.07.73-.14 1.46-.22 2.18l-.68 5.58h-.16a104.87 104.87 0 01-23.66 50.24c-12.83 15.48-30.93 30.92-51.16 43.68l-3 1.87q-2.81 1.7-5.61 3.32a111.15 111.15 0 00-2.18 22.87 103.12 103.12 0 002.8 23.35 64.56 64.56 0 009.69 22.19 54.47 54.47 0 0018.29 16.59q11.36 6.54 28.53 6.53 22.74 0 39.54-12.48a108.31 108.31 0 0028-30.78 147.84 147.84 0 0016.79-39.2q5.6-20.9 5.6-37.31c0-2-.07-3.78-.2-5.41s-.17-3.18-.17-4.66a112.9 112.9 0 0024.61-5A126.09 126.09 0 00458.2 180q3.49-1.83 6.37-3.61a54.28 54.28 0 005.56-3.83q4.47-3.54 7.08-5.41a29.74 29.74 0 005-5.14 16.73 16.73 0 001.22-19.1zm-126.77 10.45h4.24a15.87 15.87 0 0112.32 5.4 33.17 33.17 0 017.1 13.63 34.21 34.21 0 01-12.87-2.06 25.86 25.86 0 01-8-4.85 18.64 18.64 0 01-4.25-5.6 11.34 11.34 0 01-1.31-4.65c.16-1.3 1.08-1.87 2.77-1.87zm25.73 94.93a116.84 116.84 0 01-11 30.2A78.18 78.18 0 01352.5 302q-11.38 9.56-27.43 9.56a30.81 30.81 0 01-16.58-4.25 36.32 36.32 0 01-11.39-11.19 49.76 49.76 0 01-6.53-15.12 66.23 66.23 0 01-2.05-16q0-17.91 5.23-30.21a74 74 0 0112.12-20.16 64.07 64.07 0 0113.42-11.93c4.35-2.74 7.43-4.6 9.14-5.59q9.31-5.23 11.38-9.7a19.18 19.18 0 002.06-7.42 17.74 17.74 0 00-.39-4.11 28.46 28.46 0 009.14 7.08 82.47 82.47 0 0011.89 5 123.21 123.21 0 0011.94 3.36 44.62 44.62 0 009.55 1.29c.51 2.74.94 6.37 1.32 10.82s.55 9.55.55 15.28a140.34 140.34 0 01-3.59 29.65z"/>
      <path d="M209.68 0c-48.61 0-93.77 14.57-131.21 43.44C51 64.61 28.44 90.91 8.7 118.34c-4.25 6.3-11.68 17.17-7.43 24 4.24 6.57 14 5.44 19.72 2.87 8.58-4.58 13.73-16.88 17.16-25.75 4-10.61 13.44-34 27.75-49.16 28-30.31 75.16-52.28 114.91-54 49.16-2.85 124.35 32.9 124.64 89.48 0 15.44-3.7 32.3-16 51.17-15.44 24-39.46 45.17-65.19 58.9-17.71 9.43-39.45 13.44-57.46 10.62 1.73-6.57 4.57-13.15 7.43-20.3 8.29-21.71 20.29-50.88 29.15-76.89 5.43-14.86 13.72-34.58 14.85-50.32.88-16.88-11.13-23.16-22.86-18.59-25.15 8-53.76 34.89-68.62 55.75-12 17.44-20 36.89-20.86 54.6-1.71 21.45 7.43 39.75 20.86 53.47-2.56 8.86-4.86 16.88-6.57 24.87-6.57 28.59-7.14 62.33 19.44 75.48 3.72 1.71 7.14 3.42 10 4V315.6c-2-7.43-2-17.43-.58-30 .29-2.58.29-4.86.58-7.43 2-10.29 5.43-20.58 10-33.16a81.84 81.84 0 008 2.58c32.33 7.43 71.06-5.53 103.69-25.47 21.31-13 40-29 52.67-44.26a98.29 98.29 0 0023.07-52.51 103.55 103.55 0 00.71-13.29C345.46 37.73 277.44 0 209.68 0zm-78.09 208.11a28.68 28.68 0 00-2.29-2.86c-18.56-26.3-3.7-60.62 12-84.91 6.05-8.29 15.76-23.75 32.34-36.3-1.72 4-2.85 8.58-4.56 12.55-13.14 37.48-26.57 73.78-37.49 111.52z"/>
    </g>
  </g>
</svg>
